<?xml version="1.0" encoding="UTF-8" standalone="no"?>
<svg
   xmlns:dc="http://purl.org/dc/elements/1.1/"
   xmlns:cc="http://creativecommons.org/ns#"
   xmlns:rdf="http://www.w3.org/1999/02/22-rdf-syntax-ns#"
   xmlns:svg="http://www.w3.org/2000/svg"
   xmlns="http://www.w3.org/2000/svg"
   xmlns:sodipodi="http://sodipodi.sourceforge.net/DTD/sodipodi-0.dtd"
   xmlns:inkscape="http://www.inkscape.org/namespaces/inkscape"
   inkscape:version="1.0 (4035a4fb49, 2020-05-01)"
   sodipodi:docname="circle2.svg"
   xml:space="preserve"
   style="enable-background:new 0 0 700 700;"
   viewBox="0 0 700 700"
   y="0px"
   x="0px"
   id="Lager_1"
   version="1.1"><metadata
   id="metadata463"><rdf:RDF><cc:Work
       rdf:about=""><dc:format>image/svg+xml</dc:format><dc:type
         rdf:resource="http://purl.org/dc/dcmitype/StillImage" /></cc:Work></rdf:RDF></metadata><defs
   id="defs461" /><sodipodi:namedview
   inkscape:current-layer="Lager_1"
   inkscape:window-maximized="1"
   inkscape:window-y="-8"
   inkscape:window-x="1912"
   inkscape:cy="350"
   inkscape:cx="350"
   inkscape:zoom="1.2142857"
   showgrid="false"
   id="namedview459"
   inkscape:window-height="1017"
   inkscape:window-width="1920"
   inkscape:pageshadow="2"
   inkscape:pageopacity="0"
   guidetolerance="10"
   gridtolerance="10"
   objecttolerance="10"
   borderopacity="1"
   bordercolor="#666666"
   pagecolor="#ffffff" />
<style
   id="style2"
   type="text/css">
	.st0{fill:#FFFFFF;stroke:#000000;stroke-width:5.8;stroke-miterlimit:10;}
	.st1{fill:none;stroke:#000000;stroke-width:5.8;stroke-miterlimit:10;}
	.st2{fill:#FFFFFF;stroke:#000000;stroke-width:8.4;stroke-linecap:round;stroke-miterlimit:10;}
	.st3{fill:none;}
	.st4{fill:none;stroke:#000000;stroke-width:3.6;stroke-miterlimit:10;}
	.st5{fill:#FFFFFF;stroke:#000000;stroke-width:8.46;stroke-linecap:round;stroke-miterlimit:10;}
	.st6{stroke:#000000;stroke-width:3.24;stroke-linecap:round;stroke-miterlimit:10;}
	.st7{fill:#FFFFFF;}
	.st8{fill:none;stroke:#000000;stroke-width:5.58;stroke-linecap:round;stroke-miterlimit:10;}
	.st9{fill:none;stroke:#000000;stroke-width:5.58;stroke-miterlimit:10;}
	.st10{fill:none;stroke:#000000;stroke-width:9.2;stroke-linecap:round;stroke-miterlimit:10;}
	.st11{fill:none;stroke:#000000;stroke-width:1.1297;stroke-miterlimit:10;}
	.st12{fill:none;stroke:#000000;stroke-width:2.6575;stroke-miterlimit:10;}
	.st13{fill:#FF7FA4;}
</style>












<path
   id="path144"
   d="M292.5,40.5"
   class="st11" />
<g
   id="g226">
	<g
   id="g152">
		<g
   id="g150">
			<path
   id="path146"
   d="M87.8,164.9c15.5-19.2,25.2-29.1,48.4-47.4"
   class="st12" />
			<polyline
   id="polyline148"
   points="128.7,130.6 136.2,117.5 121.8,124.1    "
   class="st12" />
		</g>
	</g>
	<g
   id="g160">
		<g
   id="g158">
			<path
   id="path154"
   d="M24.2,348.1c1.3-24.7,3.3-38.3,11.3-66.8"
   class="st12" />
			<polyline
   id="polyline156"
   points="37.1,296.3 35.4,281.3 27.7,295.1    "
   class="st12" />
		</g>
	</g>
	<g
   id="g168">
		<g
   id="g166">
			<path
   id="path162"
   d="M80.4,533.8c-13.5-20.7-19.9-32.9-30.1-60.7"
   class="st12" />
			<polyline
   id="polyline164"
   points="60.4,484.3 50.3,473.1 52.1,488.8    "
   class="st12" />
		</g>
	</g>
	<g
   id="g176">
		<g
   id="g174">
			<path
   id="path170"
   d="M235,650.9c-23.1-8.8-35.5-15-60-31.4"
   class="st12" />
			<polyline
   id="polyline172"
   points="189.8,622.6 175,619.6 185.7,631.2    "
   class="st12" />
		</g>
	</g>
	<g
   id="g184">
		<g
   id="g182">
			<path
   id="path178"
   d="M429,654.8c-23.8,6.4-37.5,8.7-67,9.9"
   class="st12" />
			<polyline
   id="polyline180"
   points="375.7,658.5 362,664.7 377.5,667.8    "
   class="st12" />
		</g>
	</g>
	<g
   id="g192">
		<g
   id="g190">
			<path
   id="path186"
   d="M588.2,544c-15.5,19.2-25.2,29.1-48.4,47.4"
   class="st12" />
			<polyline
   id="polyline188"
   points="547.3,578.3 539.8,591.4 554.1,584.8    "
   class="st12" />
		</g>
	</g>
	<g
   id="g200">
		<g
   id="g198">
			<path
   id="path194"
   d="M651.8,360.7c-1.3,24.7-3.3,38.3-11.3,66.8"
   class="st12" />
			<polyline
   id="polyline196"
   points="638.9,412.5 640.5,427.5 648.3,413.7    "
   class="st12" />
		</g>
	</g>
	<g
   id="g208">
		<g
   id="g206">
			<path
   id="path202"
   d="M595.6,175c13.5,20.7,19.9,32.9,30.1,60.7"
   class="st12" />
			<polyline
   id="polyline204"
   points="615.6,224.5 625.7,235.7 623.9,220    "
   class="st12" />
		</g>
	</g>
	<g
   id="g216">
		<g
   id="g214">
			<path
   id="path210"
   d="M441,57.9c23.1,8.8,35.5,15,60,31.4"
   class="st12" />
			<polyline
   id="polyline212"
   points="486.2,86.2 501,89.3 490.3,77.7    "
   class="st12" />
		</g>
	</g>
	<g
   id="g224">
		<g
   id="g222">
			<path
   id="path218"
   d="M247,54c23.8-6.4,37.5-8.7,67-9.9"
   class="st12" />
			<polyline
   id="polyline220"
   points="300.2,50.3 314,44.1 298.5,41    "
   class="st12" />
		</g>
	</g>
</g>

<g
   id="g456">
	<g
   id="g364">
		<g
   id="g358">
			
				<rect
   id="rect356"
   height="29"
   width="7"
   class="st13"
   transform="matrix(0.1564 -0.9877 0.9877 0.1564 -50.6148 225.0261)"
   y="127.6"
   x="102.9" />
		</g>
		<g
   id="g362">
			
				<rect
   id="rect360"
   height="7"
   width="29"
   class="st13"
   transform="matrix(0.1564 -0.9877 0.9877 0.1564 -50.6148 225.0261)"
   y="138.6"
   x="91.9" />
		</g>
	</g>
	<g
   id="g374">
		<g
   id="g368">
			<rect
   id="rect366"
   height="7"
   width="29"
   class="st13"
   transform="matrix(0.891 -0.454 0.454 0.891 -141.9583 46.5004)"
   y="315.4"
   x="11.4" />
		</g>
		<g
   id="g372">
			<rect
   id="rect370"
   height="29"
   width="7"
   class="st13"
   transform="matrix(0.891 -0.454 0.454 0.891 -141.9583 46.5004)"
   y="304.4"
   x="22.4" />
		</g>
	</g>
	<g
   id="g384">
		<g
   id="g378">
			<rect
   id="rect376"
   height="7"
   width="29"
   class="st13"
   transform="matrix(0.454 -0.891 0.891 0.454 -418.4845 335.5994)"
   y="505.8"
   x="50.1" />
		</g>
		<g
   id="g382">
			<rect
   id="rect380"
   height="29"
   width="7"
   class="st13"
   transform="matrix(0.454 -0.891 0.891 0.454 -418.4845 335.5994)"
   y="494.8"
   x="61.1" />
		</g>
	</g>
	<g
   id="g394">
		<g
   id="g388">
			
				<rect
   id="rect386"
   height="29"
   width="7"
   class="st13"
   transform="matrix(0.9877 -0.1564 0.1564 0.9877 -97.6369 40.3912)"
   y="626"
   x="204.3" />
		</g>
		<g
   id="g392">
			
				<rect
   id="rect390"
   height="7"
   width="29"
   class="st13"
   transform="matrix(0.9877 -0.1564 0.1564 0.9877 -97.6369 40.3912)"
   y="637"
   x="193.3" />
		</g>
	</g>
	<g
   id="g404">
		<g
   id="g398">
			
				<rect
   id="rect396"
   height="29"
   width="7"
   class="st13"
   transform="matrix(0.7071 -0.7071 0.7071 0.7071 -351.0643 477.4417)"
   y="648"
   x="397.3" />
		</g>
		<g
   id="g402">
			
				<rect
   id="rect400"
   height="7"
   width="29"
   class="st13"
   transform="matrix(0.7071 -0.7071 0.7071 0.7071 -351.0643 477.4417)"
   y="659"
   x="386.3" />
		</g>
	</g>
	<g
   id="g414">
		<g
   id="g408">
			
				<rect
   id="rect406"
   height="29"
   width="7"
   class="st13"
   transform="matrix(0.1564 -0.9877 0.9877 0.1564 -79.1535 1041.0206)"
   y="552.3"
   x="566.4" />
		</g>
		<g
   id="g412">
			
				<rect
   id="rect410"
   height="7"
   width="29"
   class="st13"
   transform="matrix(0.1564 -0.9877 0.9877 0.1564 -79.1535 1041.0206)"
   y="563.3"
   x="555.4" />
		</g>
	</g>
	<g
   id="g424">
		<g
   id="g418">
			
				<rect
   id="rect416"
   height="7"
   width="29"
   class="st13"
   transform="matrix(0.891 -0.454 0.454 0.891 -106.2064 337.8049)"
   y="386.6"
   x="635.9" />
		</g>
		<g
   id="g422">
			
				<rect
   id="rect420"
   height="29"
   width="7"
   class="st13"
   transform="matrix(0.891 -0.454 0.454 0.891 -106.2064 337.8049)"
   y="375.6"
   x="646.9" />
		</g>
	</g>
	<g
   id="g434">
		<g
   id="g428">
			<rect
   id="rect426"
   height="7"
   width="29"
   class="st13"
   transform="matrix(0.454 -0.891 0.891 0.454 156.0285 654.0972)"
   y="196.2"
   x="597.2" />
		</g>
		<g
   id="g432">
			<rect
   id="rect430"
   height="29"
   width="7"
   class="st13"
   transform="matrix(0.454 -0.891 0.891 0.454 156.0285 654.0972)"
   y="185.2"
   x="608.2" />
		</g>
	</g>
	<g
   id="g444">
		<g
   id="g438">
			<rect
   id="rect436"
   height="29"
   width="7"
   class="st13"
   transform="matrix(0.9877 -0.1564 0.1564 0.9877 -4.9477 74.1329)"
   y="54"
   x="465" />
		</g>
		<g
   id="g442">
			<rect
   id="rect440"
   height="7"
   width="29"
   class="st13"
   transform="matrix(0.9877 -0.1564 0.1564 0.9877 -4.9477 74.1329)"
   y="65"
   x="454" />
		</g>
	</g>
	<g
   id="g454">
		<g
   id="g448">
			<rect
   id="rect446"
   height="29"
   width="7"
   class="st13"
   transform="matrix(0.7071 -0.7071 0.7071 0.7071 47.8116 208.4275)"
   y="32"
   x="272" />
		</g>
		<g
   id="g452">
			<rect
   id="rect450"
   height="7"
   width="29"
   class="st13"
   transform="matrix(0.7071 -0.7071 0.7071 0.7071 47.8116 208.4275)"
   y="43"
   x="261" />
		</g>
	</g>
</g>
<g
   style="display:inline"
   id="g2814"
   transform="matrix(-0.25138428,-0.36933355,0.35851994,-0.24402406,404.61627,594.24073)"><g
     style="display:inline;fill:#e06b34;fill-opacity:1"
     transform="matrix(0.56259339,0,0,0.66600299,-159.2284,429.68305)"
     id="XMLID_1124_"><polygon
       points="207.481,67.206 207.481,20.294 237.481,20.294 237.481,79.632 201.213,115.9 180,94.688 "
       style="fill:#e06b34;fill-opacity:1"
       id="XMLID_1127_" /></g><g
     style="display:inline;fill:#e06b34;fill-opacity:1"
     transform="matrix(0.56259339,0,0,0.66600299,-159.2284,429.68305)"
     id="XMLID_1131_"><g
       style="fill:#e06b34;fill-opacity:1"
       id="XMLID_1129_"><polygon
         points="273.966,115.538 293.251,57.683 321.712,67.169 298.497,136.813 250.439,160.842 237.023,134.009 "
         style="fill:#e06b34;fill-opacity:1"
         id="XMLID_1130_" /></g></g><g
     style="display:inline;fill:#e06b34;fill-opacity:1"
     transform="matrix(0.56259339,0,0,0.66600299,-159.2284,429.68305)"
     id="XMLID_1136_"><g
       style="fill:#e06b34;fill-opacity:1"
       id="XMLID_1134_"><polygon
         points="223.106,185.551 291.269,185.551 329.375,147.444 350.588,168.657 303.694,215.551 223.106,215.551 "
         style="fill:#e06b34;fill-opacity:1"
         id="XMLID_1135_" /></g></g><g
     style="display:inline;fill:#e06b34;fill-opacity:1"
     transform="matrix(0.56259339,0,0,0.66600299,-159.2284,429.68305)"
     id="XMLID_1141_"><g
       style="fill:#e06b34;fill-opacity:1"
       id="XMLID_1139_"><polygon
         points="215.294,253.967 228.71,227.134 276.768,251.163 299.982,320.808 271.521,330.294 252.236,272.438 "
         style="fill:#e06b34;fill-opacity:1"
         id="XMLID_1140_" /></g></g><g
     style="display:inline;fill:#4d4d4d"
     transform="matrix(0.56259339,0,0,0.66600299,-159.2284,429.68305)"
     id="XMLID_1143_"><polygon
       points="113.106,20.294 143.106,20.294 143.106,67.206 170.588,94.688 149.375,115.9 113.106,79.632 "
       style="fill:#4d4d4d"
       id="XMLID_1146_" /></g><g
     style="display:inline;fill:#4d4d4d"
     transform="matrix(0.56259339,0,0,0.66600299,-159.2284,429.68305)"
     id="XMLID_1150_"><g
       style="fill:#4d4d4d"
       id="XMLID_1148_"><polygon
         points="28.876,67.169 57.337,57.683 76.622,115.538 113.564,134.009 100.148,160.842 52.091,136.813 "
         style="fill:#4d4d4d"
         id="XMLID_1149_" /></g></g><g
     style="display:inline;fill:#4d4d4d"
     transform="matrix(0.56259339,0,0,0.66600299,-159.2284,429.68305)"
     id="XMLID_1152_"><polygon
       points="0,168.657 21.213,147.444 59.319,185.551 127.481,185.551 127.481,215.551 46.894,215.551 "
       style="fill:#4d4d4d"
       id="XMLID_1155_" /></g><g
     style="display:inline;fill:#4d4d4d"
     transform="matrix(0.56259339,0,0,0.66600299,-159.2284,429.68305)"
     id="XMLID_1156_"><polygon
       points="73.82,251.163 121.878,227.134 135.294,253.967 98.352,272.438 79.066,330.294 50.605,320.808 "
       style="fill:#4d4d4d"
       id="XMLID_1159_" /></g><g
     style="display:inline;fill:#666666"
     transform="matrix(0.56259339,0,0,0.66600299,-159.2284,429.68305)"
     id="XMLID_1120_"><g
       style="fill:#666666"
       id="XMLID_1117_"><g
         style="fill:#666666"
         id="XMLID_1118_"><circle
           r="95.625"
           cy="179.66901"
           cx="175.29401"
           style="fill:#666666"
           id="XMLID_1119_" /></g></g></g><path
     d="m -60.609147,485.65661 v 127.79118 c 29.8301,0 54.0124103,-28.60719 54.0124103,-63.89559 0,-35.28841 -24.1823103,-63.89559 -54.0124103,-63.89559 z"
     style="display:inline;fill:#e68d2c;fill-opacity:1;stroke-width:0.614343"
     id="XMLID_1162_" /></g><g
   style="display:inline"
   id="g5965-0-5"
   transform="matrix(0.41793373,0,0,0.41793373,248.34965,398.87592)"><g
     style="fill:#e68d2c;fill-opacity:1"
     transform="matrix(0.52734373,0,0,0.52734373,-13.392856,489.50892)"
     id="g15-9-8"><path
       id="path13-3-0"
       d="m 420,215 v 50 c 0,5.5 -4.5,10 -10,10 h -34.6 c -3.3,12.8 -8.3,24.9 -14.9,36 l 24.5,24.5 c 3.9,3.9 3.9,10.2 0,14.1 L 349.6,385 c -3.9,3.9 -10.2,3.9 -14.1,0 L 311,360.5 c -11.1,6.6 -23.2,11.6 -36,14.9 V 410 c 0,5.5 -4.5,10 -10,10 h -50 c -5.5,0 -10,-4.5 -10,-10 v -34.6 c -12.8,-3.3 -24.9,-8.3 -36,-14.9 L 144.5,385 c -3.9,3.9 -10.2,3.9 -14.1,0 L 95,349.6 c -3.9,-3.9 -3.9,-10.2 0,-14.1 L 119.5,311 c -6.6,-11.1 -11.6,-23.2 -14.9,-36 H 70 c -5.5,0 -10,-4.5 -10,-10 v -50 c 0,-5.5 4.5,-10 10,-10 h 34.6 c 3.3,-12.8 8.3,-24.9 14.9,-36 L 95,144.5 c -3.9,-3.9 -3.9,-10.2 0,-14.1 L 130.4,95 c 3.9,-3.9 10.2,-3.9 14.1,0 l 24.5,24.5 c 11.1,-6.6 23.2,-11.6 36,-14.9 V 70 c 0,-5.5 4.5,-10 10,-10 h 50 c 5.5,0 10,4.5 10,10 v 34.6 c 12.8,3.3 24.9,8.3 36,14.9 L 335.5,95 c 3.9,-3.9 10.2,-3.9 14.1,0 l 35.4,35.4 c 3.9,3.9 3.9,10.2 0,14.1 L 360.5,169 c 6.6,11.1 11.6,23.2 14.9,36 H 410 c 5.5,0 10,4.5 10,10 z"
       style="fill:#e68d2c;fill-opacity:1" /></g><g
     transform="matrix(0.52734373,0,0,0.52734373,-13.392856,489.50892)"
     id="g21-4-5"><g
       id="g19-3-7"><path
         id="path17-9-3"
         d="m 265,430 h -50 c -11.028,0 -20,-8.972 -20,-20 v -27.057 c -8.439,-2.644 -16.56,-6 -24.271,-10.03 l -19.158,19.158 c -3.775,3.775 -8.79,5.854 -14.121,5.854 -5.332,0 -10.347,-2.079 -14.122,-5.854 L 87.929,356.672 c -3.774,-3.774 -5.854,-8.789 -5.854,-14.121 0,-5.331 2.078,-10.346 5.854,-14.121 l 19.158,-19.158 c -4.03,-7.711 -7.387,-15.831 -10.03,-24.271 H 70 c -11.028,0 -20,-8.972 -20,-20 v -50 c 0,-11.028 8.972,-20 20,-20 h 27.057 c 2.644,-8.439 6,-16.56 10.03,-24.271 L 87.929,151.572 c -3.775,-3.775 -5.854,-8.79 -5.854,-14.121 0,-5.332 2.079,-10.347 5.854,-14.122 L 123.328,87.93 c 3.774,-3.774 8.789,-5.854 14.121,-5.854 5.331,0 10.346,2.078 14.121,5.854 l 19.158,19.158 c 7.711,-4.03 15.831,-7.387 24.271,-10.03 V 70 c 0,-11.028 8.972,-20 20,-20 h 50 c 11.028,0 20,8.972 20,20 v 27.057 c 8.439,2.644 16.56,6 24.271,10.03 l 19.158,-19.158 c 3.775,-3.775 8.79,-5.854 14.121,-5.854 5.332,0 10.347,2.079 14.122,5.854 l 35.399,35.399 c 3.774,3.774 5.854,8.789 5.854,14.121 0,5.331 -2.078,10.346 -5.854,14.121 l -19.158,19.158 c 4.03,7.711 7.387,15.831 10.03,24.271 H 410 c 11.028,0 20,8.972 20,20 v 50 c 0,11.028 -8.972,20 -20,20 h -27.057 c -2.644,8.439 -6,16.56 -10.03,24.271 l 19.158,19.158 c 3.775,3.775 5.854,8.79 5.854,14.121 0,5.332 -2.079,10.347 -5.854,14.122 l -35.399,35.399 c -3.774,3.774 -8.789,5.854 -14.121,5.854 -5.331,0 -10.346,-2.078 -14.121,-5.854 l -19.158,-19.158 c -7.711,4.03 -15.831,7.387 -24.271,10.03 V 410 C 285,421.028 276.028,430 265,430 Z m -95.997,-79.5 c 1.754,0 3.52,0.46 5.107,1.404 10.254,6.097 21.486,10.744 33.387,13.813 4.417,1.14 7.503,5.122 7.503,9.684 V 410 h 50 v -34.6 c 0,-4.562 3.086,-8.544 7.503,-9.684 11.9,-3.068 23.133,-7.716 33.387,-13.813 3.929,-2.336 8.946,-1.711 12.182,1.524 l 24.5,24.5 35.357,-35.4 -24.5,-24.457 c -3.234,-3.234 -3.861,-8.251 -1.524,-12.182 6.097,-10.254 10.744,-21.486 13.813,-33.387 1.14,-4.417 5.122,-7.503 9.684,-7.503 H 410 v -50 h -34.6 c -4.562,0 -8.544,-3.086 -9.684,-7.503 -3.068,-11.9 -7.716,-23.133 -13.813,-33.387 -2.337,-3.931 -1.71,-8.947 1.524,-12.182 l 24.5,-24.5 -35.4,-35.357 -24.457,24.5 c -3.235,3.233 -8.253,3.861 -12.182,1.524 -10.254,-6.097 -21.486,-10.744 -33.387,-13.813 -4.417,-1.14 -7.503,-5.122 -7.503,-9.684 V 70 h -50 v 34.6 c 0,4.562 -3.086,8.544 -7.503,9.684 -11.9,3.068 -23.133,7.716 -33.387,13.813 -3.929,2.337 -8.946,1.711 -12.182,-1.524 l -24.5,-24.5 -35.357,35.4 24.5,24.457 c 3.234,3.234 3.861,8.251 1.524,12.182 -6.097,10.254 -10.744,21.486 -13.813,33.387 -1.14,4.417 -5.122,7.503 -9.684,7.503 H 70 v 50 h 34.6 c 4.562,0 8.544,3.086 9.684,7.503 3.068,11.9 7.716,23.133 13.813,33.387 2.337,3.931 1.71,8.947 -1.524,12.182 l -24.5,24.5 35.4,35.357 24.457,-24.5 c 1.926,-1.929 4.487,-2.931 7.073,-2.931 z"
         style="fill:#231f20" /></g></g><path
     style="fill:#231f20;stroke-width:0.527343"
     d="m 161.46641,643.74376 -21.09375,-18.45701 -6.94511,7.93706 10.53157,9.2148 h -30.78949 c -14.53887,0 -26.367179,-11.82834 -26.367179,-26.36721 h -10.54687 c 0,20.35442 16.55963,36.91407 36.914049,36.91407 h 30.78949 l -10.53157,9.21534 6.94511,7.93704 21.09375,-18.45701 c 1.14433,-1.00092 1.80088,-2.44795 1.80088,-3.96828 0,-1.52034 -0.65655,-2.9679 -1.80088,-3.9688 z"
     id="path24-2-4-9" /><path
     style="fill:#231f20;stroke-width:0.527343"
     d="M 113.16963,579.15736 H 82.380141 L 92.911721,569.94202 85.9666,562.00496 64.87286,580.462 c -1.144329,1.00089 -1.800879,2.44793 -1.800879,3.96827 0,1.52033 0.65655,2.96736 1.800879,3.96825 l 21.09374,18.45704 6.945121,-7.93705 -10.53158,-9.21428 h 30.789489 c 14.53887,0 26.3672,11.82833 26.3672,26.36717 h 10.54686 c 0,-20.35441 -16.55964,-36.91404 -36.91406,-36.91404 z"
     id="path26-2-2-1" /><circle
     r="15.820312"
     style="fill:#ffffff;fill-opacity:1;stroke-width:0.527343"
     cx="113.16965"
     cy="616.07141"
     id="circle28-7-8" /></g><g
   style="display:inline"
   id="g983-9-1-0"
   transform="matrix(-0.27361455,0.28109774,-0.27160477,-0.26437429,674.61726,140.41079)"><path
     style="fill:#373748;stroke-width:0.438023"
     d="m 204.90491,278.83223 h -37.76733 l -5.90125,77.86741 c -1.17729,14.71028 10.25711,27.30806 24.78492,27.30806 v 0 c 14.52779,0 25.96177,-12.59778 24.78534,-27.30806 z"
     id="path2-3-19-9-3" /><path
     style="fill:#1c1c24;stroke-width:0.438023"
     d="m 204.90491,278.83223 h -18.88366 c 0,0 0,88.73942 0,105.17547 v 0 c 14.52779,0 25.96177,-12.59778 24.78534,-27.30806 z"
     id="path4-8-6-1-5" /><polygon
     transform="matrix(0.43458672,0,0,0.44148524,74.767044,157.96726)"
     style="fill:#e68d2c"
     points="124.782,202.495 387.218,202.495 398.884,0 113.116,0 "
     id="polygon6-07-1-3" /><polygon
     transform="matrix(0.43458672,0,0,0.44148524,74.767044,157.96726)"
     style="fill:#e06b34"
     points="256,202.495 387.218,202.495 398.884,0 256,0 "
     id="polygon8-7-8-9" /><rect
     y="157.96725"
     x="148.40778"
     style="fill:#e9e9e9;stroke-width:0.438023"
     width="14.511285"
     height="42.03381"
     id="rect10-0-3-4" /><rect
     y="157.96725"
     x="209.12343"
     style="fill:#d4d4d4;stroke-width:0.438023"
     width="14.511285"
     height="42.03381"
     id="rect12-5-2-3" /><rect
     y="157.96725"
     x="178.76538"
     style="fill:#e9e9e9;stroke-width:0.438023"
     width="14.511285"
     height="32.638123"
     id="rect14-8-6-2" /><rect
     y="157.96725"
     x="186.02124"
     style="fill:#d4d4d4;stroke-width:0.438023"
     width="7.2558589"
     height="32.638123"
     id="rect16-8-2-0" /><path
     style="fill:#53536c;stroke-width:0.438023"
     d="M 232.64979,282.93363 H 139.3927 c -10.23365,0 -18.52904,-8.42751 -18.52904,-18.82316 v -22.07294 h 130.31517 v 22.07294 c 0,10.39565 -8.29539,18.82316 -18.52904,18.82316 z"
     id="path18-3-1-9-9" /><path
     style="fill:#373748;fill-opacity:1;stroke-width:0.438023"
     d="m 232.64979,282.93363 h -46.62854 v -40.8961 h 65.15758 v 22.07294 c 0,10.39565 -8.29539,18.82316 -18.52904,18.82316 z"
     id="path20-1-7-7-7" /></g><g
   inkscape:transform-center-y="-2.203345"
   inkscape:transform-center-x="2.9511363"
   style="display:inline"
   transform="matrix(0.29363299,-0.14761604,0.14761604,0.29363299,215.69415,-41.421349)"
   id="g3256-4-7"><path
     id="path2-8-5-4"
     d="M -96.680102,249.34614 H -345.28358 c -2.80189,0 -5.07355,-1.95282 -5.07355,-4.36144 v -52.33721 c 0,-2.40862 2.27166,-4.36144 5.07355,-4.36144 h 248.602898 c 2.80189,0 5.07355,1.95282 5.07355,4.36144 v 52.33721 c 0,2.40913 -2.27166,4.36144 -5.07297,4.36144 z"
     style="display:inline;fill:#1a1a1a;stroke-width:0.543819" /><path
     id="path4-7-3-6"
     d="m -284.40095,249.34614 h -60.88263 c -2.80189,0 -5.07355,-1.95282 -5.07355,-4.36144 v -52.33721 c 0,-2.40862 2.27166,-4.36144 5.07355,-4.36144 h 60.88263 z"
     style="display:inline;fill:#ff5050;stroke-width:0.543819" /><path
     id="path6-6-2-1"
     d="M -96.680102,327.85145 H -345.28358 c -2.80189,0 -5.07355,-1.9528 -5.07355,-4.36143 V 271.1528 c 0,-2.40861 2.27166,-4.36143 5.07355,-4.36143 h 248.602898 c 2.80189,0 5.07355,1.95282 5.07355,4.36143 v 52.33722 c 0,2.40863 -2.27166,4.36143 -5.07297,4.36143 z"
     style="display:inline;fill:#1a1a1a;stroke-width:0.543819" /><path
     id="path8-2-8-6"
     d="m -284.40095,327.85145 h -60.88263 c -2.80189,0 -5.07355,-1.9528 -5.07355,-4.36143 V 271.1528 c 0,-2.40861 2.27166,-4.36143 5.07355,-4.36143 h 60.88263 z"
     style="display:inline;fill:#ffdc64;stroke-width:0.543819" /><path
     id="path10-3-3"
     d="M -96.680102,406.35678 H -345.28358 c -2.80189,0 -5.07355,-1.95282 -5.07355,-4.36144 v -52.33671 c 0,-2.40862 2.27166,-4.36144 5.07355,-4.36144 h 248.602898 c 2.80189,0 5.07355,1.95282 5.07355,4.36144 v 52.33721 c 0,2.40812 -2.27166,4.36094 -5.07297,4.36094 z"
     style="display:inline;fill:#1a1a1a;stroke-width:0.543819" /><path
     id="path12-0-6-2"
     d="m -284.40095,406.35678 h -60.88263 c -2.80189,0 -5.07355,-1.95282 -5.07355,-4.36144 v -52.33671 c 0,-2.40862 2.27166,-4.36144 5.07355,-4.36144 h 60.88263 z"
     style="display:inline;fill:#7df5a5;stroke-width:0.543819" /><path
     id="path24-1-8-7"
     d="m -264.10674,214.18188 h 86.2498 c 2.62711,0 4.75625,-1.83079 4.75625,-4.08865 0,-2.25787 -2.12973,-4.08866 -4.75625,-4.08866 h -86.2498 c -2.62711,0 -4.75624,1.83079 -4.75624,4.08866 0,2.25786 2.12913,4.08865 4.75624,4.08865 z"
     style="display:inline;fill:#ffffff;stroke-width:0.543819" /><path
     id="path26-5-1"
     d="m -223.20217,227.53897 c 0,2.25836 2.12972,4.08865 4.75624,4.08865 h 101.47104 c 2.62711,0 4.75623,-1.83079 4.75623,-4.08865 0,-2.25787 -2.12972,-4.08866 -4.75623,-4.08866 h -101.47104 c -2.6271,-5.1e-4 -4.75624,1.83029 -4.75624,4.08866 z"
     style="display:inline;fill:#ffffff;stroke-width:0.543819" /><path
     id="path28-8-0"
     d="m -238.7378,223.4498 h -25.36894 c -2.62711,0 -4.75624,1.8308 -4.75624,4.08866 0,2.25786 2.12972,4.08865 4.75624,4.08865 h 25.36894 c 2.6271,0 4.75624,-1.83079 4.75624,-4.08865 0,-2.25786 -2.12972,-4.08866 -4.75624,-4.08866 z"
     style="display:inline;fill:#ffffff;stroke-width:0.543819" /><path
     id="path30-4-7-2"
     d="m -330.06292,216.3626 c 2.6271,0 4.75623,-1.83079 4.75623,-4.08866 0,-3.75789 3.55618,-6.81493 7.92765,-6.81493 4.37146,0 7.92764,3.05754 7.92764,6.81493 0,3.75739 -3.55618,6.81493 -7.92764,6.81493 -2.62711,0 -4.75624,1.8308 -4.75624,4.08866 0,2.25786 2.12972,4.08866 4.75624,4.08866 9.61687,0 17.44011,-6.72519 17.44011,-14.99225 0,-8.26706 -7.82324,-14.99224 -17.44011,-14.99224 -9.61688,0 -17.44012,6.72569 -17.44012,14.99224 0,2.25787 2.12972,4.08866 4.75624,4.08866 z"
     style="display:inline;stroke-width:0.543819" /><path
     id="path32-8-9"
     d="m -317.32802,232.17267 h -0.0505 c -2.6271,0 -4.73101,1.8308 -4.73101,4.08866 0,2.25837 2.15494,4.08865 4.78204,4.08865 2.62711,0 4.75624,-1.83079 4.75624,-4.08865 -5.8e-4,-2.25786 -2.13031,-4.08866 -4.75682,-4.08866 z"
     style="display:inline;stroke-width:0.543819" /><path
     id="path34-1-1-0"
     d="m -264.10674,292.68771 h 86.2498 c 2.62711,0 4.75625,-1.8308 4.75625,-4.08866 0,-2.25837 -2.12973,-4.08866 -4.75625,-4.08866 h -86.2498 c -2.62711,0 -4.75624,1.8308 -4.75624,4.08866 -5.8e-4,2.25786 2.12913,4.08866 4.75624,4.08866 z"
     style="display:inline;fill:#ffffff;stroke-width:0.543819" /><path
     id="path36-8-1-5"
     d="m -132.19496,301.95563 h -86.25039 c -2.6271,0 -4.75624,1.83079 -4.75624,4.08865 0,2.25787 2.12973,4.08866 4.75624,4.08866 h 86.25039 c 2.62711,0 4.75624,-1.83079 4.75624,-4.08866 0,-2.25786 -2.12972,-4.08865 -4.75624,-4.08865 z"
     style="display:inline;fill:#ffffff;stroke-width:0.543819" /><path
     id="path38-5-4-1"
     d="m -238.7378,301.95563 h -25.36894 c -2.62711,0 -4.75624,1.83079 -4.75624,4.08865 0,2.25787 2.12972,4.08866 4.75624,4.08866 h 25.36894 c 2.6271,0 4.75624,-1.83079 4.75624,-4.08866 0,-2.25786 -2.12972,-4.08865 -4.75624,-4.08865 z"
     style="display:inline;fill:#ffffff;stroke-width:0.543819" /><path
     id="path40-6-2"
     d="m -317.37904,275.78702 c -9.61688,0 -17.44012,6.72519 -17.44012,14.99224 0,2.25837 2.12972,4.08866 4.75624,4.08866 2.62651,0 4.75623,-1.8308 4.75623,-4.08866 0,-3.75788 3.55618,-6.81492 7.92765,-6.81492 4.37146,0 7.92764,3.05704 7.92764,6.81492 0,3.7579 -3.55618,6.81493 -7.92764,6.81493 -2.62711,0 -4.75624,1.8308 -4.75624,4.08866 0,2.25786 2.12972,4.08865 4.75624,4.08865 9.61687,0 17.44011,-6.72518 17.44011,-14.99224 0,-8.26705 -7.82324,-14.99224 -17.44011,-14.99224 z"
     style="display:inline;stroke-width:0.543819" /><path
     id="path42-7-8"
     d="m -317.32802,310.6785 h -0.0505 c -2.6271,0 -4.73101,1.83079 -4.73101,4.08865 0,2.25786 2.15494,4.08866 4.78204,4.08866 2.62711,0 4.75624,-1.8308 4.75624,-4.08866 0,-2.25786 -2.13031,-4.08865 -4.75682,-4.08865 z"
     style="display:inline;stroke-width:0.543819" /><path
     id="path44-5-8"
     d="m -264.10674,371.19302 h 86.2498 c 2.62711,0 4.75625,-1.83079 4.75625,-4.08865 0,-2.25786 -2.12973,-4.08866 -4.75625,-4.08866 h -86.2498 c -2.62711,0 -4.75624,1.8308 -4.75624,4.08866 0,2.25786 2.12913,4.08865 4.75624,4.08865 z"
     style="display:inline;fill:#ffffff;stroke-width:0.543819" /><path
     id="path46-6-4"
     d="m -127.12142,380.46095 h -91.32393 c -2.6271,0 -4.75624,1.83079 -4.75624,4.08865 0,2.25786 2.12973,4.08866 4.75624,4.08866 h 91.32393 c 2.62711,0 4.75625,-1.8308 4.75625,-4.08866 0,-2.25786 -2.12973,-4.08865 -4.75625,-4.08865 z"
     style="display:inline;fill:#ffffff;stroke-width:0.543819" /><path
     id="path48-4-8-8"
     d="m -238.7378,380.46095 h -25.36894 c -2.62711,0 -4.75624,1.83079 -4.75624,4.08865 0,2.25786 2.12972,4.08866 4.75624,4.08866 h 25.36894 c 2.6271,0 4.75624,-1.8308 4.75624,-4.08866 0,-2.25786 -2.12972,-4.08865 -4.75624,-4.08865 z"
     style="display:inline;fill:#ffffff;stroke-width:0.543819" /><path
     id="path50-8-8-6"
     d="m -317.37904,354.29234 c -9.61688,0 -17.44012,6.72518 -17.44012,14.99224 0,2.25837 2.12972,4.08866 4.75624,4.08866 2.62651,0 4.75623,-1.8308 4.75623,-4.08866 0,-3.75789 3.55618,-6.81493 7.92765,-6.81493 4.37146,0 7.92764,3.05704 7.92764,6.81493 0,3.75789 -3.55618,6.81494 -7.92764,6.81494 -2.62711,0 -4.75624,1.83079 -4.75624,4.08865 0,2.25786 2.12972,4.08865 4.75624,4.08865 9.61687,0 17.44011,-6.72517 17.44011,-14.99224 0,-8.26656 -7.82324,-14.99224 -17.44011,-14.99224 z"
     style="display:inline;stroke-width:0.543819" /><path
     id="path52-3-4-8"
     d="m -317.32802,389.18382 h -0.0505 c -2.6271,0 -4.73101,1.83079 -4.73101,4.08865 0,2.25786 2.15494,4.08866 4.78204,4.08866 2.62711,0 4.75624,-1.8308 4.75624,-4.08866 0,-2.25786 -2.13031,-4.08865 -4.75682,-4.08865 z"
     style="display:inline;stroke-width:0.543819" /></g><g
   id="g12487-9-4-4-1"
   transform="matrix(1.2783743,0.1967043,0.1135203,-1.2489905,-76.045979,514.91783)"
   style="display:inline"><path
     style="fill:#c4c8c4;stroke-width:0.221311"
     d="m 335.58551,390.58689 c -1.53527,0.13403 -2.88253,1.09919 -3.24395,2.44917 l -9.45605,35.35061 -15.44775,-33.17312 c -0.72457,-1.55588 -2.81375,-2.28152 -4.66635,-1.62069 -1.85263,0.66062 -2.76711,2.45779 -2.04254,4.01368 l 19.70646,42.31863 c 0.57574,1.23634 2.04422,1.98598 3.62065,1.84814 1.57644,-0.13784 2.89254,-1.13095 3.24498,-2.44845 l 12.06322,-45.09644 c 0.44332,-1.65801 -0.76894,-3.26923 -2.7081,-3.59831 -0.3603,-0.0611 -0.72023,-0.0738 -1.07057,-0.0432 z"
     id="path2-9-3-5-9-6-8" /><path
     style="fill:#a5a9a6;stroke-width:0.221311"
     d="m 322.88551,428.38667 -15.44775,-33.17312 c -0.72457,-1.55588 -2.81375,-2.28152 -4.66635,-1.62069 -1.85263,0.66062 -2.76711,2.45779 -2.04254,4.01368 l 19.70646,42.31863 c 0.57574,1.23634 2.04422,1.98598 3.62065,1.84814 z"
     id="path4-5-4-1-7-7-6" /><path
     style="fill:#d40000;stroke-width:0.221311"
     d="m 322.13452,419.40854 c -5.86944,0.5132 -11.11485,3.67324 -13.68944,8.24721 -0.86781,1.54173 -0.12012,3.35371 1.66989,4.0468 1.79002,0.6931 3.94456,0.005 4.81238,-1.53606 1.45761,-2.58975 4.42315,-4.37871 7.73959,-4.66868 3.37247,-0.29488 6.63246,0.9884 8.50817,3.34887 1.09812,1.38211 3.33307,1.71335 4.99159,0.73979 1.65878,-0.97337 2.11317,-2.88289 1.01481,-4.26497 -3.31275,-4.16904 -9.07842,-6.43483 -15.04699,-5.91296 z"
     id="path6-7-5-2-3-7-6" /><path
     style="fill:#800000;stroke-width:0.221311"
     d="m 322.10075,419.41149 c -5.7473,0.50252 -11.09808,3.67177 -13.67244,8.24573 -0.8678,1.54172 -0.11173,3.35297 1.67828,4.04607 1.79001,0.69309 3.93187,0.007 4.79969,-1.53496 1.45761,-2.58975 4.3743,-4.37443 7.72689,-4.66757 z"
     id="path8-8-9-7-6-5" /><path
     id="path10-8-6-7-5-6"
     d="m 324.32376,444.83581 c -1.98378,0.17345 -3.47288,1.67726 -3.32586,3.35871 l 1.13584,12.99043 c 0.14702,1.68145 1.8745,2.90401 3.85827,2.73056 1.98378,-0.17346 3.47288,-1.67726 3.32586,-3.35871 l -1.13584,-12.99044 c -0.14702,-1.68145 -1.8745,-2.90401 -3.85827,-2.73055 z"
     style="fill:#d40000;stroke-width:0.221311" /><path
     id="path12-3-8-8-5-2"
     d="m 324.32376,444.83581 c -1.98378,0.17345 -3.47288,1.67726 -3.32586,3.35871 l 1.13584,12.99043 c 0.14702,1.68145 1.8745,2.90401 3.85827,2.73056 z"
     style="fill:#800000;stroke-width:0.221311" /><ellipse
     ry="9.7763309"
     rx="11.534138"
     transform="matrix(0.99619924,-0.08710384,-0.08710387,-0.99619924,0,0)"
     id="circle14-4-3-5-1-2"
     cy="-470.11987"
     cx="284.34415"
     style="fill:#f8b242;stroke-width:0.221311" /><path
     id="path16-3-8-8-9-8"
     d="m 323.36114,433.82641 c -6.34599,0.55487 -11.10905,5.36499 -10.63875,10.74384 0.47031,5.37885 5.99588,9.28938 12.34186,8.73451 z"
     style="fill:#d09838;stroke-width:0.221311" /></g><g
   style="display:inline"
   transform="matrix(-1.1930137,0.13087219,0.1300028,1.2947125,80.239789,562.87718)"
   id="g1502-7-8"><path
     style="fill:#e4e7e7;stroke-width:0.243821"
     d="m -351.40238,83.790598 h 13.31388 v 24.620952 c 0,2.26495 -1.98827,4.1011 -4.43805,4.1011 h -4.44007 c -2.44977,0 -4.43804,-1.83615 -4.43804,-4.1011 V 83.790598 Z"
     id="path2-3-0" /><path
     style="fill:#cdcfcf;stroke-width:0.243821"
     d="M -351.40466,83.790598 V 96.102127 L -338.0885,83.790598 Z"
     id="path4-8-4" /><path
     style="fill:#676767;stroke-width:0.243821"
     d="m -338.09053,83.790598 h 8.87584 v 4.103218 c 0,2.267062 -1.98827,4.103217 -4.43805,4.103217 h -4.43779 z"
     id="path6-4-9" /><path
     style="fill:#e2574c;stroke-width:0.243821"
     d="m -355.84246,59.171761 h 26.62777 v 24.618837 h -26.62777 c -2.44977,0 -4.43804,-1.836156 -4.43804,-4.102983 V 63.274978 c 0,-2.264951 1.98827,-4.103217 4.43804,-4.103217 z"
     id="path8-66-9" /><path
     style="fill:#e4e7e7;stroke-width:0.243821"
     d="m -291.86913,46.862342 c -13.08085,12.093966 -24.03168,12.309419 -24.03168,12.309419 h -13.31388 v 24.618837 h 13.31388 c 0,0 10.92623,0.192946 24.03168,12.309419 h 2.59608 V 46.862342 Z"
     id="path10-9-8" /><path
     style="fill:#d1d6d7;stroke-width:0.243821"
     d="m -291.86913,46.862342 c -0.61898,0.572275 -1.23161,1.095551 -1.84171,1.616717 v 46.004475 c 0.6101,0.521166 1.22045,1.044208 1.84171,1.616717 h 2.59608 V 46.862342 Z"
     id="path12-34-5" /><path
     style="fill:#cdcfcf;stroke-width:0.243821"
     d="m -293.71084,92.431925 c -12.26865,-10.493894 -22.18997,-10.692701 -22.18997,-10.692701 h -13.31388 v 2.051609 h 13.31388 c 0,0 10.92623,0.192946 24.03168,12.309418 -0.62126,-0.572275 -1.23161,-1.095551 -1.84171,-1.616717 z"
     id="path14-1-5" /><path
     style="fill:#bcc0c1;stroke-width:0.243821"
     d="m -293.71084,92.431925 v 2.051609 c 0.6101,0.521166 1.22045,1.044208 1.84171,1.616717 h 2.59608 v -2.051609 h -2.59608 c -0.62126,-0.572509 -1.23161,-1.095551 -1.84171,-1.616717 z"
     id="path16-4-0" /><path
     style="fill:#cb4e44;stroke-width:0.243821"
     d="m -353.62343,81.739224 c -2.44978,0 -4.43805,-1.836156 -4.43805,-4.103218 V 61.22337 c 0,-0.601112 0.14657,-1.167291 0.39938,-1.682362 -1.53995,0.644249 -2.6184,2.07013 -2.6184,3.73397 v 16.412637 c 0,2.267062 1.98827,4.103218 4.43804,4.103218 h 26.62777 v -2.051609 z"
     id="path18-37-7" /></g><g
   style="display:inline"
   id="g4949-4-2"
   transform="matrix(0.33767731,-0.02810655,0.02810655,0.33767731,259.75399,442.92145)"><g
     transform="translate(-159.09902,-7.5761439)"
     id="g4929-7-1"><path
       style="display:inline;fill:#333333;stroke-width:0.45148"
       d="m -348.06644,-33.072909 h -220.58052 c -4.5135,0 -8.16956,-3.48039 -8.16956,-7.77702 V -211.94608 h 236.91964 v 171.096151 c 0,4.29663 -3.65606,7.77702 -8.16956,7.77702"
       id="path2-0-5-3" /><path
       style="display:inline;fill:#4d4d4d;stroke-width:0.45148"
       d="m -339.89688,-211.94608 h -236.91964 v -38.88553 c 0,-4.29663 3.65606,-7.77702 8.16956,-7.77702 h 220.58052 c 4.5135,0 8.16956,3.48039 8.16956,7.77702 z"
       id="path4-8-88-7-5" /><path
       style="display:inline;fill:#ed7161;stroke-width:0.45148"
       d="m -535.96825,-235.27714 c 0,-6.44318 -5.48571,-11.66574 -12.25457,-11.66574 -6.76887,0 -12.25458,5.22212 -12.25458,11.66574 0,6.44363 5.48571,11.66575 12.25458,11.66575 6.76886,0 12.25457,-5.22256 12.25457,-11.66575"
       id="path6-3-4-1" /><path
       style="display:inline;fill:#ecba16;stroke-width:0.45148"
       d="m -495.11997,-235.27714 c 0,-6.44318 -5.48571,-11.66574 -12.25458,-11.66574 -6.76887,0 -12.25457,5.22212 -12.25457,11.66574 0,6.44363 5.4857,11.66575 12.25457,11.66575 6.76887,0 12.25458,-5.22256 12.25458,-11.66575"
       id="path8-8-5-7" /><g
       id="g14-5-2-0"
       transform="matrix(0.46273367,0,0,0.44049945,-576.81652,-258.60863)"
       style="display:inline"><path
         style="fill:#42b05c"
         d="m 264.828,52.966 c 0,-14.627 -11.855,-26.483 -26.483,-26.483 -14.627,0 -26.483,11.855 -26.483,26.483 0,14.628 11.855,26.483 26.483,26.483 14.627,-0.001 26.483,-11.856 26.483,-26.483"
         id="path10-5-4-4" /><path
         style="fill:#42b05c"
         d="m 123.586,158.897 h -70.62 c -4.882,0 -8.828,-3.955 -8.828,-8.828 0,-4.873 3.946,-8.828 8.828,-8.828 h 70.621 c 4.882,0 8.828,3.955 8.828,8.828 -0.001,4.873 -3.947,8.828 -8.829,8.828"
         id="path12-5-3-6" /></g><path
       style="display:inline;fill:#ecba16;stroke-width:0.45148"
       d="m -519.62912,-141.95204 h -32.67825 c -2.25907,0 -4.08501,-1.74218 -4.08501,-3.88873 0,-2.14655 1.82594,-3.88873 4.08501,-3.88873 h 32.67871 c 2.25907,0 4.08501,1.74218 4.08501,3.88873 0,2.14655 -1.82641,3.88873 -4.08547,3.88873"
       id="path16-5-2-0" /><path
       style="display:inline;fill:#dd342e;stroke-width:0.45148"
       d="m -482.86585,-165.28354 h -57.18741 c -2.25907,0 -4.08501,-1.74217 -4.08501,-3.88872 0,-2.14656 1.82594,-3.88873 4.08501,-3.88873 h 57.18741 c 2.25906,0 4.085,1.74217 4.085,3.88873 0,2.14655 -1.82594,3.88872 -4.085,3.88872"
       id="path18-5-3-9" /><path
       style="display:inline;fill:#7383bf;stroke-width:0.45148"
       d="m -482.86585,-118.62099 h -69.44152 c -2.25907,0 -4.08501,-1.74217 -4.08501,-3.88873 0,-2.14655 1.82594,-3.88873 4.08501,-3.88873 h 69.44197 c 2.25907,0 4.08502,1.74218 4.08502,3.88873 0,2.14656 -1.82641,3.88873 -4.08547,3.88873"
       id="path20-3-6-1" /><path
       style="display:inline;fill:#ecba16;stroke-width:0.45148"
       d="m -495.11997,-95.289489 h -44.93329 c -2.25907,0 -4.08501,-1.74218 -4.08501,-3.88873 0,-2.146561 1.82594,-3.888731 4.08501,-3.888731 h 44.93283 c 2.25906,0 4.08501,1.74217 4.08501,3.888731 0,2.14655 -1.82595,3.88873 -4.08455,3.88873"
       id="path22-7-3-8" /><path
       style="display:inline;fill:#7383bf;stroke-width:0.45148"
       d="m -495.11997,-48.626949 h -44.93329 c -2.25907,0 -4.08501,-1.74217 -4.08501,-3.88873 0,-2.14655 1.82594,-3.88873 4.08501,-3.88873 h 44.93283 c 2.25906,0 4.08501,1.74218 4.08501,3.88873 0,2.14656 -1.82595,3.88873 -4.08455,3.88873"
       id="path24-8-8-1" /><path
       style="display:inline;fill:#42b05c;stroke-width:0.45148"
       d="m -470.61127,-71.958439 h -57.18742 c -2.25906,0 -4.08501,-1.74218 -4.08501,-3.88873 0,-2.14655 1.82595,-3.88873 4.08501,-3.88873 h 57.18742 c 2.25905,0 4.085,1.74218 4.085,3.88873 0,2.14655 -1.82595,3.88873 -4.085,3.88873"
       id="path26-8-4-9" /><path
       style="display:inline;fill:#0f81e0;stroke-width:0.45148"
       d="m -356.23601,-87.512479 v -69.994041 c 0,-4.29663 -3.65606,-7.77702 -8.16957,-7.77702 h -73.52699 c -4.51349,0 -8.16956,3.48039 -8.16956,7.77702 v 23.3315 l -12.25458,11.66574 12.25458,11.66575 v 23.331491 c 0,4.29664 3.65607,7.77702 8.16956,7.77702 h 73.52699 c 4.51351,-4.4e-4 8.16957,-3.48082 8.16957,-7.77746"
       id="path28-4-0" /><g
       id="g34-1-4-8"
       transform="matrix(0.46273367,0,0,0.44049945,-576.81652,-258.60863)"
       style="display:inline"><path
         style="fill:#ffffff"
         d="m 353.103,370.759 c -14.601,0 -26.483,-11.882 -26.483,-26.483 v -14.009 l -15.086,-15.192 c -1.651,-1.66 -2.578,-3.902 -2.569,-6.25 0.009,-2.339 0.945,-4.582 2.604,-6.232 l 15.051,-14.954 v -13.983 c 0,-14.601 11.882,-26.483 26.483,-26.483 4.882,0 8.828,3.955 8.828,8.828 0,4.873 -3.946,8.828 -8.828,8.828 -4.785,0 -8.828,4.043 -8.828,8.828 v 17.655 c 0,2.348 -0.936,4.599 -2.604,6.259 l -11.396,11.326 11.432,11.502 c 1.651,1.651 2.569,3.893 2.569,6.223 v 17.655 c 0,4.785 4.043,8.828 8.828,8.828 4.882,0 8.828,3.955 8.828,8.828 0,4.873 -3.947,8.826 -8.829,8.826"
         id="path30-2-9-6" /><path
         style="fill:#ffffff"
         d="m 406.069,370.759 c -4.882,0 -8.828,-3.955 -8.828,-8.828 0,-4.873 3.946,-8.828 8.828,-8.828 4.785,0 8.828,-4.043 8.828,-8.828 V 326.62 c 0,-2.339 0.927,-4.59 2.586,-6.241 l 11.414,-11.414 -11.414,-11.414 c -1.66,-1.651 -2.586,-3.902 -2.586,-6.241 v -17.655 c 0,-4.785 -4.043,-8.828 -8.828,-8.828 -4.882,0 -8.828,-3.955 -8.828,-8.828 0,-4.873 3.946,-8.828 8.828,-8.828 14.601,0 26.483,11.882 26.483,26.483 v 14.001 l 15.069,15.069 c 3.452,3.452 3.452,9.031 0,12.482 l -15.069,15.069 v 14.001 c 0,14.601 -11.882,26.483 -26.483,26.483"
         id="path32-0-6" /></g></g></g><g
   style="display:inline"
   id="g1896-0-1-3"
   transform="matrix(0.19018278,0.03799654,-0.03409457,0.18216464,65.931897,71.921325)"><path
     style="fill:#d8ba8f;stroke-width:0.9375"
     d="m 320.20364,975.32184 c 0,15.75 -12.75,28.49996 -28.49999,28.49996 H -93.796337 c -15.750003,0 -28.500003,-12.74996 -28.500003,-28.49996 V 589.82185 c 0,-15.75 12.75,-28.5 28.500003,-28.5 H 290.95365 c 15.74999,0 28.49999,12.75 28.49999,28.5 v 385.49999 z"
     id="path2-5-7-4-0" /><path
     style="fill:#c9a97f;stroke-width:0.9375"
     d="m -122.29634,589.82185 c 0,-15.75 12.75,-28.5 28.500003,-28.5 H 290.95365 c 15.74999,0 28.49999,12.75 28.49999,28.5 v 384.74999 c 0,15.75 -12.75,28.49996 -28.49999,28.49996"
     id="path4-5-9-7-5" /><rect
     x="41.203659"
     y="565.07184"
     style="fill:#ba966c;stroke-width:0.9375"
     width="115.49999"
     height="140.25"
     id="rect6-41-1-1" /><rect
     y="561.32184"
     x="41.203659"
     style="fill:#e5d3ae;stroke-width:0.9375"
     width="115.49999"
     height="140.25"
     id="rect8-1-6-7" /><g
     transform="matrix(0.93749997,0,0,0.93749997,-122.29634,561.32185)"
     id="g14-9-7-1-0"><path
       style="fill:#bc224a"
       d="m 152,306.4 h -20 l 0.8,0.8 -35.2,35.2 h 45.6 L 116,369.6 h 27.2 l -52,52 H 152 c 4,0 8,-3.2 8,-8 v -100 c 0,-4 -3.2,-7.2 -8,-7.2 z"
       id="path10-2-3-6-7" /><path
       style="fill:#bc224a"
       d="m 71.2,420.8 36,-36 H 80 l 28,-28 H 62.4 l 50.4,-50.4 H 52 c -4,0 -7.2,3.2 -7.2,8 v 100 c 0,4 3.2,8 7.2,8 h 20 z"
       id="path12-3-2-6" /></g><polyline
     transform="matrix(0.93749997,0,0,0.93749997,-122.29634,561.32185)"
     style="fill:#e0cca0"
     points="174.4,149.6 297.6,149.6 297.6,0 "
     id="polyline16-1-8-3" /><g
     transform="matrix(0.93749997,0,0,0.93749997,-122.29634,561.32185)"
     id="g22-4-4-3-5"><path
       style="fill:#a80f3f"
       d="m 71.2,420.8 36,-36 H 80 l 28,-28 h -6.4 L 44,413.6 c 0,4 3.2,8 7.2,8 h 20 z"
       id="path18-2-0-7" /><path
       style="fill:#a80f3f"
       d="m 152,306.4 -36,36 h 27.2 L 116,369.6 h 27.2 l -52,52 H 152 c 4,0 8,-3.2 8,-8 v -100 c 0,-4 -3.2,-7.2 -8,-7.2 z"
       id="path20-6-3-9" /></g><path
     style="fill:#a58967;stroke-width:0.9375"
     d="m 265.45365,887.57184 -30.75,-30.75 c -6,-6 -15.75,-6 -21.75,0 l -31.5,30.75 c -6,6 -6,15.75 0,21.75 3,3 6.75,4.5 11.25,4.5 3.75,0 8.25,-1.5 11.25,-4.5 l 4.5,-4.5 v 36 c 0,8.25 6.75,15.75 15.75,15.75 8.25,0 15.75,-6.75 15.75,-15.75 v -36 l 4.5,4.5 c 6,6 15.75,6 21.75,0 5.25,-6 5.25,-15.75 -0.75,-21.75 z"
     id="path24-82-7-7" /><path
     style="fill:#967857;stroke-width:0.9375"
     d="m 234.70365,856.82184 c -6,-6 -15.75,-6 -21.75,0 l -31.5,30.75 c -0.75,0.75 -2.25,2.25 -2.25,3.75 l 21,21 c 1.5,-0.75 2.25,-1.5 3.75,-2.25 l 4.5,-4.5 v 15 l 28.5,28.5 c 1.5,-2.25 2.25,-5.25 2.25,-8.25 v -36 l 4.5,4.5 c 6,6 15.75,6 21.75,0 6,-6 6,-15.75 0,-21.75 z"
     id="path26-5-7-1" /><g
     transform="matrix(0.93749997,0,0,0.93749997,-122.29634,561.32185)"
     id="g28-6-6-7" /><g
     transform="matrix(0.93749997,0,0,0.93749997,-122.29634,561.32185)"
     id="g30-2-6-9" /><g
     transform="matrix(0.93749997,0,0,0.93749997,-122.29634,561.32185)"
     id="g32-6-3-2" /><g
     transform="matrix(0.93749997,0,0,0.93749997,-122.29634,561.32185)"
     id="g34-6-6-2" /><g
     transform="matrix(0.93749997,0,0,0.93749997,-122.29634,561.32185)"
     id="g36-0-6-4" /><g
     transform="matrix(0.93749997,0,0,0.93749997,-122.29634,561.32185)"
     id="g38-8-4-3" /><g
     transform="matrix(0.93749997,0,0,0.93749997,-122.29634,561.32185)"
     id="g40-82-6-6" /><g
     transform="matrix(0.93749997,0,0,0.93749997,-122.29634,561.32185)"
     id="g42-6-9-0" /><g
     transform="matrix(0.93749997,0,0,0.93749997,-122.29634,561.32185)"
     id="g44-2-5-7" /><g
     transform="matrix(0.93749997,0,0,0.93749997,-122.29634,561.32185)"
     id="g46-4-2-2" /><g
     transform="matrix(0.93749997,0,0,0.93749997,-122.29634,561.32185)"
     id="g48-1-4-6" /><g
     transform="matrix(0.93749997,0,0,0.93749997,-122.29634,561.32185)"
     id="g50-1-5-3" /><g
     transform="matrix(0.93749997,0,0,0.93749997,-122.29634,561.32185)"
     id="g52-5-6-4" /><g
     transform="matrix(0.93749997,0,0,0.93749997,-122.29634,561.32185)"
     id="g54-4-7-7" /><g
     transform="matrix(0.93749997,0,0,0.93749997,-122.29634,561.32185)"
     id="g56-6-7-9" /></g><g
   id="g1380-6-6"
   transform="matrix(-0.96647477,0.27073487,-0.2667985,-1.02108,1009.7285,420.17793)"><g
     transform="matrix(0.13894656,-0.13791073,0.13702489,0.13655053,251.80909,203.74783)"
     id="g4-7-1"><path
       style="fill:#b3f4ff"
       d="m 328,328 c -79.403,0 -144,-64.596 -144,-144 0,-79.404 64.596,-144 144,-144 79.404,0 144,64.596 144,144 0,79.404 -64.597,144 -144,144 z"
       id="path2-35-5" /></g><g
     transform="matrix(0.11736635,-0.11267951,0.11499593,0.11081536,262.69078,200.23176)"
     id="g10-3-0"><g
       id="g8-1-2"><path
         style="fill:#8b8996"
         d="m 165.212,359.987 c -3.662,0 -7.325,-1.398 -10.12,-4.193 -5.591,-5.591 -5.591,-14.656 0,-20.24 l 43.919,-43.913 c 5.591,-5.591 14.649,-5.591 20.24,0 5.591,5.591 5.591,14.656 0,20.24 l -43.919,43.912 c -2.795,2.796 -6.458,4.194 -10.12,4.194 z"
         id="path6-3-9" /></g></g><g
     transform="matrix(0.11736635,-0.11267951,0.11499593,0.11081536,262.69078,200.23176)"
     id="g14-8-3"><path
       style="fill:#b9bbc1"
       d="M 328,0 C 226.539,0 144,82.543 144,184 144,285.457 226.539,368 328,368 429.461,368 512,285.457 512,184 512,82.543 429.461,0 328,0 Z m 0,328 c -79.403,0 -144,-64.596 -144,-144 0,-79.404 64.596,-144 144,-144 79.404,0 144,64.596 144,144 0,79.404 -64.597,144 -144,144 z"
       id="path12-5-7" /></g><g
     transform="matrix(0.11736635,-0.11267951,0.11499593,0.11081536,262.69078,200.23176)"
     id="g18-1-6"><path
       style="fill:#9f6459"
       d="M 180.555,331.441 C 173.18,324.062 163.375,320 152.937,320 c -10.438,0 -20.242,4.062 -27.625,11.441 L 11.445,445.312 C 4.062,452.687 0,462.5 0,472.933 0,483.371 4.062,493.179 11.445,500.558 18.82,507.937 28.633,512 39.062,512 c 10.437,0 20.25,-4.062 27.625,-11.441 L 180.554,386.688 C 187.937,379.312 192,369.5 192,359.066 c 0,-10.437 -4.063,-20.246 -11.445,-27.625 z"
       id="path16-8-9" /></g><g
     transform="matrix(0.11736635,-0.11267951,0.11499593,0.11081536,262.69078,200.23176)"
     id="g22-3-1"><path
       style="fill:#7e5c62"
       d="M 180.555,331.441 C 173.18,324.062 163.375,320 152.937,320 c -10.438,0 -20.242,4.062 -27.625,11.441 L 11.445,445.312 C 4.062,452.687 0,462.5 0,472.933 c 0,10.438 4.062,20.246 11.445,27.625 L 180.558,331.445 c 0,0.001 -0.002,-0.002 -0.003,-0.004 z"
       id="path20-5-6" /></g><g
     transform="matrix(0.11736635,-0.11267951,0.11499593,0.11081536,262.69078,200.23176)"
     id="g26-7-3"><path
       style="fill:#ffffff"
       d="m 356,220 c -35.29,0 -64,-28.71 -64,-64 0,-35.29 28.71,-64 64,-64 35.29,0 64,28.71 64,64 0,35.29 -28.71,64 -64,64 z"
       id="path24-2-9" /></g></g><g
   transform="matrix(1.5389434,0.02204241,-0.02082748,1.6605814,-370.28318,276.38643)"
   id="g1872-7-6"
   style="display:inline"><path
     id="path2-51-3"
     d="m 333.78643,203.75169 -34.50958,0.64903 c -1.16071,0.0218 -2.11785,-0.82443 -2.13789,-1.88997 l -0.9193,-48.88076 c -0.0201,-1.06566 0.9046,-1.94721 2.06531,-1.96905 l 53.2404,-1.0013 c 1.16069,-0.0218 2.11784,0.82433 2.13788,1.88999 l 0.59589,31.68374 c 0.01,0.51165 -0.20252,1.00657 -0.58998,1.37596 l -18.40729,17.5493 c -0.38723,0.36919 -0.91792,0.58258 -1.47544,0.59306 z"
     style="fill:#ffda79;stroke-width:0.107526" /><path
     style="fill:#ffd155;stroke-width:0.107526"
     d="m 349.75961,148.81935 -26.47417,2.82908 5.60496,52.45048 7.8461,-0.83845 c 0.55446,-0.0592 1.06444,-0.31818 1.41787,-0.71996 l 16.80033,-19.09332 c 0.35353,-0.40178 0.52165,-0.91337 0.46726,-1.42232 l -3.36722,-31.50994 c -0.11325,-1.05981 -1.14079,-1.81893 -2.29513,-1.69557 z"
     id="path4-0-9" /><g
     id="g4-70-8"
     transform="matrix(0.93381419,-0.08304976,0.08304976,0.93381419,308.53779,159.68225)"
     inkscape:transform-center-x="3.3107762"
     inkscape:transform-center-y="4.714029"
     style="fill:#333333"><path
       id="path2-4-7-3"
       d="m 11.811,10.535 -6.983,6.984 6.983,6.981 c 0.78,0.781 0.78,2.048 0,2.828 -0.392,0.392 -0.901,0.586 -1.414,0.586 -0.513,0 -1.022,-0.194 -1.414,-0.586 L 0.586,18.932 C 0.211,18.558 0,18.049 0,17.519 0,16.99 0.211,16.48 0.586,16.105 L 8.983,7.707 c 0.781,-0.78 2.047,-0.78 2.828,0 0.78,0.781 0.78,2.045 0,2.828 z m 22.636,5.569 -8.396,-8.398 c -0.781,-0.78 -2.047,-0.78 -2.828,0 -0.781,0.781 -0.781,2.047 0,2.828 l 6.982,6.984 -6.982,6.982 c -0.781,0.781 -0.781,2.048 0,2.828 0.392,0.392 0.902,0.586 1.414,0.586 0.512,0 1.023,-0.194 1.414,-0.586 l 8.396,-8.396 c 0.375,-0.375 0.586,-0.884 0.586,-1.414 0,-0.528 -0.211,-1.039 -0.586,-1.414 z M 21.012,3.831 C 19.936,3.554 18.851,4.204 18.577,5.272 l -6,23.498 c -0.272,1.07 0.373,2.16 1.442,2.434 0.167,0.043 0.334,0.063 0.497,0.063 0.894,0 1.706,-0.603 1.937,-1.505 l 6,-23.498 C 22.727,5.193 22.081,4.104 21.012,3.831 Z"
       style="fill:#333333" /></g><path
     style="fill:#ffc72d;stroke-width:0.107526"
     d="m 333.78621,203.7517 c -1.157,0.0218 -2.11737,-0.82268 -2.13744,-1.88998 l -0.32342,-17.19704 c -0.02,-1.06564 0.90461,-1.94719 2.06531,-1.96903 l 18.7307,-0.35227 c 1.86486,-0.0351 2.84823,2.02625 1.54791,3.26595 l -18.40739,17.5493 c -0.39496,0.37665 -0.92893,0.5828 -1.47567,0.59307 z"
     id="path12-8-9" /></g></svg>
