<?xml version="1.0" encoding="utf-8"?>
<!-- Generator: Adobe Illustrator 23.1.0, SVG Export Plug-In . SVG Version: 6.00 Build 0)  -->
<svg version="1.1" id="Lager_1" xmlns="http://www.w3.org/2000/svg" xmlns:xlink="http://www.w3.org/1999/xlink" x="0px" y="0px"
	 viewBox="0 0 700 700" style="enable-background:new 0 0 700 700;" xml:space="preserve">
<style type="text/css">
	.st0{fill:#FFFFFF;stroke:#000000;stroke-width:5.8;stroke-miterlimit:10;}
	.st1{fill:none;stroke:#000000;stroke-width:5.8;stroke-miterlimit:10;}
	.st2{fill:#FFFFFF;stroke:#000000;stroke-width:8.4;stroke-linecap:round;stroke-miterlimit:10;}
	.st3{fill:none;}
	.st4{fill:none;stroke:#000000;stroke-width:3.6;stroke-miterlimit:10;}
	.st5{fill:#FFFFFF;stroke:#000000;stroke-width:8.46;stroke-linecap:round;stroke-miterlimit:10;}
	.st6{stroke:#000000;stroke-width:3.24;stroke-linecap:round;stroke-miterlimit:10;}
	.st7{fill:#FFFFFF;}
	.st8{fill:none;stroke:#000000;stroke-width:5.58;stroke-linecap:round;stroke-miterlimit:10;}
	.st9{fill:none;stroke:#000000;stroke-width:5.58;stroke-miterlimit:10;}
	.st10{fill:none;stroke:#000000;stroke-width:9.2;stroke-linecap:round;stroke-miterlimit:10;}
	.st11{fill:none;stroke:#000000;stroke-width:1.1297;stroke-miterlimit:10;}
	.st12{fill:none;stroke:#000000;stroke-width:2.6575;stroke-miterlimit:10;}
	.st13{fill:#FF7FA4;}
</style>
<g>
	<path class="st0" d="M350.7,45.7c0.1,0.2,0.2,0.4,0.4,0.6c-7.8,19.2-15.6,38.4-23.4,57.6c0-1.6,3-7.5,3-7.5L350.7,45.7z"/>
	<path class="st0" d="M362,19.4l3,7.1c-0.4-0.1-0.9-0.2-1.3-0.2l-2.2-5.3c0,0,0-0.1,0-0.1c0,0,0,0.1,0,0.1c-0.8,1.9-1.5,3.7-2.3,5.6
		c-0.3,0.1-0.6,0.2-0.9,0.2l1.9-4.9C360.9,19.9,361.2,17.3,362,19.4z"/>
	<path class="st0" d="M396.5,103.9l-24-56.7c0.2-0.3,0.5-0.6,0.7-1l20.4,49.1C393.6,95.4,396.7,102.2,396.5,103.9z"/>
	<circle class="st1" cx="362.1" cy="39.3" r="13.1"/>
	<line class="st2" x1="361.5" y1="16.7" x2="361.5" y2="24.6"/>
	<path class="st3" d="M375.2,39.3c0,2.6-0.7,5-2,7c-0.2,0.3-0.4,0.6-0.7,1c-2.4,3.1-6.2,5.2-10.4,5.2c-4.7,0-8.7-2.4-11.1-6.1
		c-0.1-0.2-0.2-0.4-0.4-0.6c-1.1-1.9-1.7-4.1-1.7-6.4c0-5.9,3.9-10.8,9.2-12.5c0.3-0.1,0.6-0.2,0.9-0.2c1-0.2,2-0.4,3-0.4
		c0.5,0,1,0,1.5,0.1c0.4,0.1,0.9,0.1,1.3,0.2C370.8,27.8,375.2,33.1,375.2,39.3z"/>
</g>
<g>
	<g>
		<path d="M625.8,518.6c-6.3,0-12.6-1.7-18.2-4.9c-8.1-4.7-13.9-12-16.5-20.7c-2.6-8.7-1.6-17.7,2.8-25.3
			c5.8-10,16.4-15.9,28.5-15.9c6.3,0,12.6,1.7,18.2,4.9c16.7,9.6,22.8,30.3,13.7,46C648.5,512.7,637.9,518.6,625.8,518.6z"/>
		<path d="M622.4,451.7v0.2c6.3,0,12.6,1.7,18.2,4.9c16.6,9.6,22.7,30.2,13.7,45.8c-5.8,9.9-16.4,15.9-28.4,15.9
			c-6.3,0-12.6-1.7-18.2-4.9c-8-4.7-13.9-12-16.5-20.7c-2.6-8.7-1.6-17.6,2.8-25.2c5.8-9.9,16.4-15.9,28.4-15.9V451.7 M622.4,451.7
			c-11.6,0-22.6,5.7-28.6,16c-9.1,15.8-3,36.4,13.7,46.1c5.8,3.4,12.1,5,18.3,5c11.6,0,22.6-5.7,28.6-16c9.1-15.8,3-36.4-13.7-46.1
			C634.9,453.3,628.6,451.7,622.4,451.7L622.4,451.7z"/>
	</g>
	<g>
		<path d="M586.2,484.1c-6.3,0-12-3.4-15-9c-5.2-9.5-1.7-22.5,7.7-29c3.5-2.4,7.4-3.7,11.4-3.7c6.3,0,12,3.4,15,9
			c5.2,9.5,1.7,22.5-7.7,29C594,482.8,590.1,484.1,586.2,484.1z"/>
		<path d="M590.2,442.3v0.2c6.3,0,11.9,3.3,14.9,8.9c5.1,9.4,1.7,22.4-7.7,28.9c-3.5,2.4-7.4,3.7-11.3,3.7c-6.3,0-11.9-3.3-14.9-8.9
			c-5.1-9.4-1.7-22.4,7.7-28.9c3.5-2.4,7.4-3.7,11.3-3.7L590.2,442.3 M590.2,442.3c-3.8,0-7.8,1.2-11.4,3.7
			c-9.5,6.6-12.9,19.7-7.8,29.2c3.2,5.9,8.9,9,15.1,9c3.8,0,7.8-1.2,11.4-3.7c9.5-6.6,12.9-19.7,7.8-29.2
			C602.1,445.4,596.4,442.3,590.2,442.3L590.2,442.3z"/>
	</g>
	<polyline class="st4" points="655.7,444.1 643.4,449.2 637.5,464.7 	"/>
	<polyline class="st4" points="676.4,458.4 660.7,457.2 651.8,472.3 	"/>
	<polyline class="st4" points="601.1,498.7 586.8,500.4 581.3,516.3 	"/>
	<polyline class="st4" points="608.8,508.5 596.1,512.6 594.4,531.5 	"/>
	<polyline class="st4" points="621.6,508.6 611.6,525.4 620.7,541.1 	"/>
	<polyline class="st4" points="635,436.6 625,445.5 624.5,462 	"/>
	<polyline class="st4" points="585.9,428.3 579.1,439.7 583.6,455.6 	"/>
	<polyline class="st4" points="553.2,476.5 562.2,468.2 578.5,469.1 	"/>
</g>
<g>
	<path d="M38.3,454.7c0,0.5,0,1-0.1,1.3c-0.1,0.4-0.2,0.7-0.3,0.9c-0.1,0.2-0.3,0.4-0.5,0.5c-0.2,0.1-0.4,0.2-0.6,0.2
		c-0.6,0.1-1.1,0.2-1.5,0.2c-0.4,0-1,0-1.6,0c-2.2,0-4-0.4-5.4-1c-1.4-0.7-2.5-1.7-3.3-3.1c-0.8-1.4-1.4-3.1-1.7-5.2
		c-0.3-2.1-0.4-4.9-0.4-8.3v-10.1c0-2.2-0.1-4-0.4-5.4c-0.3-1.4-0.7-2.6-1.3-3.6c-0.6-1-1.3-1.9-2.2-2.5c-0.9-0.6-2-1-3.2-1.1
		c-0.3-0.1-0.5-0.2-0.7-0.3c-0.2-0.1-0.4-0.3-0.5-0.5c-0.1-0.2-0.2-0.5-0.3-0.9c-0.1-0.4-0.1-0.8-0.1-1.3c0-0.5,0-1,0.1-1.3
		c0-0.4,0.1-0.7,0.2-0.9c0.1-0.2,0.3-0.4,0.5-0.5s0.4-0.2,0.7-0.2c2.4-0.3,4.2-1.4,5.4-3.5c1.2-2.1,1.8-5.1,1.8-9.2v-7.9
		c0-3.4,0.2-6.2,0.5-8.3c0.3-2.1,0.9-3.8,1.7-5.2c0.8-1.4,1.9-2.4,3.3-3.1c1.4-0.7,3.1-1,5.3-1c0.6,0,1.1,0,1.5,0
		c0.4,0,0.9,0.1,1.5,0.2c0.2,0,0.4,0.1,0.7,0.2c0.2,0.1,0.4,0.3,0.5,0.5c0.1,0.2,0.3,0.5,0.3,0.9c0.1,0.4,0.1,0.8,0.1,1.3
		c0,0.6,0,1-0.1,1.4c-0.1,0.4-0.2,0.7-0.3,1c-0.1,0.3-0.3,0.4-0.5,0.5c-0.2,0.1-0.4,0.1-0.7,0.1l-2,0c-0.8,0-1.4,0.1-2,0.4
		c-0.6,0.3-1,0.8-1.3,1.6c-0.3,0.8-0.6,1.9-0.8,3.3c-0.2,1.4-0.3,3.5-0.3,6.4v7.1c0,2.4-0.1,4.4-0.4,6.1c-0.3,1.7-0.7,3.2-1.4,4.5
		c-0.7,1.3-1.6,2.5-2.7,3.4c-1.1,1-2.5,1.6-4.2,2c1.7,0.3,3.1,1,4.2,1.9c1.1,1,2,2.1,2.7,3.5c0.7,1.4,1.1,2.9,1.4,4.5
		c0.3,1.7,0.4,3.7,0.4,6.1v9.3c0,2.9,0.1,5,0.2,6.4c0.2,1.4,0.4,2.5,0.8,3.3c0.3,0.8,0.8,1.3,1.3,1.6s1.2,0.4,1.9,0.4l2.1,0
		c0.3,0,0.6,0,0.8,0.1c0.2,0.1,0.4,0.3,0.6,0.5s0.3,0.6,0.3,0.9C38.3,453.6,38.3,454.1,38.3,454.7z"/>
	<path d="M94,414.4c0,0.5,0,1-0.1,1.3c0,0.4-0.1,0.7-0.2,0.9c-0.1,0.2-0.3,0.4-0.5,0.5c-0.2,0.1-0.4,0.2-0.7,0.2
		c-1.4,0.1-2.5,0.6-3.4,1.4c-0.9,0.8-1.7,1.9-2.2,3.2c-0.6,1.3-1,2.8-1.2,4.4c-0.2,1.6-0.3,3.6-0.3,5.9v7.9c0,3.4-0.2,6.2-0.5,8.3
		c-0.3,2.1-0.9,3.8-1.7,5.2c-0.8,1.4-1.9,2.4-3.3,3.1c-1.4,0.7-3.2,1-5.3,1c-0.6,0-1.1,0-1.6,0c-0.4,0-1-0.1-1.6-0.2
		c-0.2,0-0.4-0.1-0.6-0.2c-0.2-0.1-0.4-0.3-0.5-0.5c-0.1-0.2-0.2-0.5-0.3-0.9c-0.1-0.4-0.1-0.8-0.1-1.3c0-0.6,0-1,0.1-1.4
		c0.1-0.4,0.2-0.7,0.4-1c0.1-0.3,0.3-0.4,0.5-0.5s0.4-0.1,0.6-0.1l2.1,0c0.8,0,1.4-0.1,2-0.4c0.6-0.3,1-0.8,1.4-1.6
		c0.4-0.8,0.6-1.9,0.8-3.3c0.2-1.4,0.2-3.5,0.2-6.4v-7.1c0-2.4,0.1-4.6,0.4-6.4c0.3-1.9,0.7-3.6,1.4-5.3c0.7-1.6,1.5-3,2.7-4.2
		s2.5-1.9,4.2-2.3c-1.7-0.3-3.1-0.8-4.2-1.6c-1.1-0.7-2-1.6-2.7-2.7c-0.7-1.1-1.1-2.4-1.4-3.8c-0.3-1.4-0.4-3.4-0.4-5.8v-9.3
		c0-2.9-0.1-5-0.2-6.4c-0.2-1.4-0.4-2.5-0.8-3.3c-0.3-0.8-0.8-1.3-1.3-1.6s-1.2-0.4-1.9-0.4l-2,0c-0.4,0-0.7,0-0.9-0.1
		s-0.4-0.3-0.6-0.5c-0.2-0.2-0.3-0.6-0.3-0.9c-0.1-0.4-0.1-0.9-0.1-1.4c0-0.5,0-1,0.1-1.3c0.1-0.4,0.2-0.7,0.3-0.9
		c0.1-0.2,0.3-0.4,0.5-0.5c0.2-0.1,0.5-0.2,0.8-0.2c0.6-0.1,1-0.2,1.5-0.2c0.4,0,0.9,0,1.6,0c2.1,0,3.9,0.4,5.3,1
		c1.4,0.7,2.5,1.7,3.3,3.1c0.8,1.4,1.4,3.1,1.7,5.2c0.3,2.1,0.5,4.9,0.5,8.3v10.1c0,2.2,0.1,3.9,0.4,5c0.3,1.1,0.7,2.1,1.3,2.8
		c0.6,0.7,1.3,1.3,2.2,1.7c0.9,0.4,2,0.7,3.2,0.9c0.3,0,0.5,0.1,0.7,0.2c0.2,0.1,0.4,0.3,0.5,0.6c0.1,0.2,0.2,0.5,0.3,0.9
		S94,413.9,94,414.4z"/>
</g>
<g>
	<path class="st5" d="M607.8,166.8c-34.2-34.9-59.2-57.8-59.2-57.8l-2.3,2.2c0,0,54.7,52.3,60.8,55.1"/>
	<path class="st6" d="M518.1,79.1c0,0,5.3,4.7,13.5,5.9c6.8,1,10.6-1.9,14.8,0c4.3,2,5.3,5.6,5.9,9.9c1.2,8.6-5.9,18.2-15.1,19.1
		c-6.5,0.6-13.7-3-15.7-8.3c-1.7-4.6-1.3-6.2-2.3-13.5C518.2,84.9,518.1,79.1,518.1,79.1z"/>
	<path class="st7" d="M534.3,87.9c4.5,0.6,7.5,0.4,7.7,1.4c0.2,0.8-2,2.2-3.9,2.7c-7.3,2.1-16.1-5.9-15.5-6.9
		C523,84.4,526.4,86.8,534.3,87.9z"/>
</g>
<path d="M66.8,570.6l35-16.3v7.7l-26.5,11.6v0.1l26.5,11.6v7.7l-35-16.3V570.6z"/>
<path d="M107.2,596.1l15.6-52.9h7.4l-15.6,52.9H107.2z"/>
<path d="M169.4,577.1l-35,16.1v-7.7l27.1-11.6v-0.1l-27.1-11.6v-7.7l35,16.1V577.1z"/>
<g>
	<path class="st8" d="M254.2,609.3c8.6-15.4,25-25.9,44-25.9c27.8,0,50.3,22.5,50.3,50.3"/>
	<polyline class="st9" points="255.3,586.3 252.5,611.6 275.1,601.6 	"/>
	<path class="st8" d="M342,657.9c-8.6,15.4-25,25.9-44,25.9c-27.8,0-50.3-22.5-50.3-50.3"/>
	<polyline class="st9" points="340.9,681 343.7,655.6 321,665.7 	"/>
	<circle class="st8" cx="298.2" cy="633.6" r="20.8"/>
	<g>
		<g>
			<g>
				<rect x="293.8" y="602.1" width="8.6" height="8.6"/>
				<rect x="312.4" y="609.7" transform="matrix(0.6774 -0.7356 0.7356 0.6774 -349.5079 431.041)" width="8.6" height="8.6"/>
			</g>
		</g>
		<g>
			<g>
				<rect x="266.6" y="629.6" width="8.6" height="8.6"/>
				<rect x="274.1" y="611" transform="matrix(0.6774 -0.7356 0.7356 0.6774 -362.8283 403.3347)" width="8.6" height="8.6"/>
			</g>
		</g>
		<g>
			<g>
				<rect x="294" y="656.8" width="8.6" height="8.6"/>
				<rect x="275.5" y="649.3" transform="matrix(0.6774 -0.7356 0.7356 0.6774 -390.5346 416.655)" width="8.6" height="8.6"/>
			</g>
		</g>
		<g>
			<g>
				<rect x="321.3" y="629.4" width="8.6" height="8.6"/>
				<rect x="313.7" y="647.9" transform="matrix(0.6774 -0.7356 0.7356 0.6774 -377.2143 444.3614)" width="8.6" height="8.6"/>
			</g>
		</g>
		<g>
			<g>
				<rect x="293.8" y="602.1" width="8.6" height="8.6"/>
				<rect x="312.4" y="609.7" transform="matrix(0.6774 -0.7356 0.7356 0.6774 -349.5079 431.041)" width="8.6" height="8.6"/>
			</g>
		</g>
	</g>
</g>
<g>
	<path d="M227.4,128.8c-3.7-1.3-10.1-6-10.1-11.6c0-3.8,2.3-6.9,8.7-12c5.5-4.3,8.3-7.2,8.3-10.9c0-3.6-2.4-6.7-6.8-6.7
		c-6.6,0-10.5,6.2-11.8,6.2c-1.5,0-4.3-2.3-4.3-4.7c0-1.4,0.5-2.4,1.9-3.7c3.2-2.7,7.7-3.6,10.8-3.6c9.1,0,15.9,7.9,15.9,15.7
		c0,4.2-1.4,7.8-7.1,12.5c-5,4.2-7.7,6.1-7.7,9.4c0,2.7,1.4,4.5,4.1,7L227.4,128.8z M224.9,149.6c-3.6,0-6.2-2.6-6.2-6.4
		c0-3.6,2.5-6.4,6.2-6.4c3.5,0,6.2,2.8,6.2,6.4C231.1,147,228.4,149.6,224.9,149.6z"/>
</g>
<g>
	<path d="M188.6,111.5c-5.2-1.8-14.1-8.4-14.1-16.2c0-5.3,3.2-9.7,12.2-16.8c7.7-6,11.6-10.1,11.6-15.3c0-5-3.4-9.4-9.5-9.4
		c-9.2,0-14.7,8.7-16.5,8.7c-2.1,0-6-3.2-6-6.6c0-2,0.7-3.4,2.7-5.2c4.5-3.8,10.8-5,15.1-5c12.7,0,22.3,11.1,22.3,22
		c0,5.9-2,10.9-9.9,17.5c-7,5.9-10.8,8.5-10.8,13.2c0,3.8,2,6.3,5.7,9.8L188.6,111.5z M185.1,140.6c-5,0-8.7-3.6-8.7-9
		c0-5,3.5-9,8.7-9c4.9,0,8.7,3.9,8.7,9C193.8,136.9,190,140.6,185.1,140.6z"/>
</g>
<g>
	<path class="st8" d="M455.2,604.5c7.8-14,22.7-23.5,39.9-23.5c25.2,0,45.6,20.4,45.6,45.6s-20.4,45.6-45.6,45.6
		c-25.2,0-45.6-20.4-45.6-45.6"/>
	<polyline class="st9" points="456.2,583.6 453.7,606.6 474.2,597.5 	"/>
</g>
<g>
	<g>
		<path d="M615.3,261.2c18.1,0,32.8,14.7,32.8,32.8s-14.7,32.8-32.8,32.8c-18.1,0-32.8-14.7-32.8-32.8S597.2,261.2,615.3,261.2
			 M615.3,255.4c-21.3,0-38.6,17.3-38.6,38.6c0,21.3,17.3,38.6,38.6,38.6c21.3,0,38.6-17.3,38.6-38.6
			C653.9,272.7,636.6,255.4,615.3,255.4L615.3,255.4z"/>
	</g>
	<line class="st10" x1="680.5" y1="362.8" x2="641.8" y2="322.3"/>
</g>
<path class="st11" d="M292.5,40.5"/>
<g>
	<g>
		<g>
			<path class="st12" d="M87.8,164.9c15.5-19.2,25.2-29.1,48.4-47.4"/>
			<polyline class="st12" points="128.7,130.6 136.2,117.5 121.8,124.1 			"/>
		</g>
	</g>
	<g>
		<g>
			<path class="st12" d="M24.2,348.1c1.3-24.7,3.3-38.3,11.3-66.8"/>
			<polyline class="st12" points="37.1,296.3 35.4,281.3 27.7,295.1 			"/>
		</g>
	</g>
	<g>
		<g>
			<path class="st12" d="M80.4,533.8c-13.5-20.7-19.9-32.9-30.1-60.7"/>
			<polyline class="st12" points="60.4,484.3 50.3,473.1 52.1,488.8 			"/>
		</g>
	</g>
	<g>
		<g>
			<path class="st12" d="M235,650.9c-23.1-8.8-35.5-15-60-31.4"/>
			<polyline class="st12" points="189.8,622.6 175,619.6 185.7,631.2 			"/>
		</g>
	</g>
	<g>
		<g>
			<path class="st12" d="M429,654.8c-23.8,6.4-37.5,8.7-67,9.9"/>
			<polyline class="st12" points="375.7,658.5 362,664.7 377.5,667.8 			"/>
		</g>
	</g>
	<g>
		<g>
			<path class="st12" d="M588.2,544c-15.5,19.2-25.2,29.1-48.4,47.4"/>
			<polyline class="st12" points="547.3,578.3 539.8,591.4 554.1,584.8 			"/>
		</g>
	</g>
	<g>
		<g>
			<path class="st12" d="M651.8,360.7c-1.3,24.7-3.3,38.3-11.3,66.8"/>
			<polyline class="st12" points="638.9,412.5 640.5,427.5 648.3,413.7 			"/>
		</g>
	</g>
	<g>
		<g>
			<path class="st12" d="M595.6,175c13.5,20.7,19.9,32.9,30.1,60.7"/>
			<polyline class="st12" points="615.6,224.5 625.7,235.7 623.9,220 			"/>
		</g>
	</g>
	<g>
		<g>
			<path class="st12" d="M441,57.9c23.1,8.8,35.5,15,60,31.4"/>
			<polyline class="st12" points="486.2,86.2 501,89.3 490.3,77.7 			"/>
		</g>
	</g>
	<g>
		<g>
			<path class="st12" d="M247,54c23.8-6.4,37.5-8.7,67-9.9"/>
			<polyline class="st12" points="300.2,50.3 314,44.1 298.5,41 			"/>
		</g>
	</g>
</g>
<g>
	<g>
		<rect x="59.1" y="165.8" class="st7" width="56.9" height="62.1"/>
		<path d="M114.3,167.5v58.7H60.8v-58.7H114.3 M117.7,164.1H57.4v65.5h60.4V164.1L117.7,164.1z"/>
	</g>
	<g>
		<rect x="40.2" y="172.9" class="st7" width="56.9" height="55.4"/>
		<path d="M95.4,174.6v52H41.9v-52H95.4 M98.8,171.2H38.5v58.8h60.4V171.2L98.8,171.2z"/>
	</g>
	<g>
		<g>
			<path d="M68.9,206.4c0.3,0,0.3-0.5,0-0.5C68.5,205.9,68.5,206.4,68.9,206.4L68.9,206.4z"/>
		</g>
	</g>
	<g>
		<g>
			<rect x="59.1" y="165.9" class="st7" width="56.9" height="54.3"/>
			<path d="M114.3,167.6v50.9H60.8v-50.9H114.3 M117.7,164.2H57.4v57.7h60.4V164.2L117.7,164.2z"/>
		</g>
		<g>
			<g>
				<path d="M65.1,175.2c1.3-0.1,2.3-0.8,2.8-2c0.1-0.3-0.3-0.4-0.5-0.2c-0.4,0.6-0.7,1.7,0.3,1.9c0.5,0.2,1.3-0.1,1.8-0.2
					c0.7-0.2,1.3-0.4,1.9-0.7c-0.1,0-0.2-0.1-0.3-0.1c0.3,0.6,0.9,1,1.6,1.1c0.5,0,0.9,0,1.3-0.2c0.2-0.1,0.4-0.2,0.5-0.3
					c0.5-0.3,0.5-0.2,1.2-0.2c0.9,0,1.8-0.6,2.5-1.1c1.2-0.6,2.3-1.3,3.5-1.9c-0.1-0.1-0.2-0.3-0.3-0.4c-1,1.1-1.7,2.3-2.1,3.7
					c-0.1,0.3,0.4,0.4,0.5,0.1c0.4-1.3,1.1-2.4,2-3.4c0.2-0.2,0-0.5-0.3-0.4c-0.8,0.5-1.7,0.9-2.5,1.4c-0.8,0.5-1.7,1.1-2.6,1.4
					c-0.4,0.1-0.8,0-1.2,0.1c-0.3,0-0.5,0.2-0.8,0.3c-1,0.5-2.3,0.8-2.9-0.4c-0.1-0.1-0.2-0.1-0.3-0.1c-0.6,0.3-1.3,0.5-2,0.7
					c-0.3,0.1-0.6,0.2-0.9,0.2c-0.7-0.1-0.7-0.7-0.4-1.2c-0.2-0.1-0.3-0.1-0.5-0.2c-0.4,1-1.2,1.6-2.3,1.6
					C64.8,174.7,64.8,175.2,65.1,175.2L65.1,175.2z"/>
			</g>
		</g>
		<g>
			<g>
				<g>
					<path d="M79.7,175.2c0.9-0.1,1.8-0.3,2.7-0.4c0-0.2-0.1-0.3-0.1-0.5c-0.7,0.2-1.2,0.5-1.7,1c-0.2,0.2,0,0.5,0.2,0.4
						c3.5-0.9,6.9-2.1,10.2-3.4c-0.1-0.1-0.2-0.2-0.3-0.3c-0.1,0.5-0.2,1.1-0.3,1.6c0,0.2,0.2,0.4,0.4,0.3c1.5-0.7,3.1-1.3,4.6-1.9
						c-0.1-0.1-0.2-0.2-0.3-0.2c0,0.8-0.1,1.6-0.4,2.4c0,0.1,0,0.3,0.2,0.3c1.2,0.2,2.3,0.3,3.5,0.3c0-0.2,0-0.3,0-0.5
						c-4.2,0.3-8.4-0.3-12.3-1.9c0,0.2-0.1,0.3-0.1,0.5c2.5,0.5,5,1,7.6,0.9c2.6-0.1,5.1-1,7.7-0.7c-0.1-0.1-0.2-0.2-0.2-0.3
						c-0.1,0.4-0.1,0.7-0.2,1.1c0,0.2,0.2,0.4,0.4,0.3c0.6-0.3,1.1-0.5,1.7-0.8c-0.1-0.1-0.2-0.1-0.4-0.2c0.5,3.1,4.3,2.7,6.5,2
						c0.3-0.1,0.2-0.6-0.1-0.5c-2,0.6-5.4,1.2-5.9-1.7c0-0.2-0.2-0.2-0.4-0.2c-0.6,0.3-1.1,0.5-1.7,0.8c0.1,0.1,0.2,0.2,0.4,0.3
						c0.1-0.4,0.1-0.7,0.2-1.1c0-0.2-0.1-0.3-0.2-0.3c-2.4-0.2-4.8,0.5-7.2,0.7c-2.7,0.2-5.3-0.3-7.9-0.9c-0.3-0.1-0.4,0.4-0.1,0.5
						c4,1.5,8.2,2.2,12.4,1.9c0.3,0,0.3-0.5,0-0.5c-1.1,0-2.2-0.1-3.3-0.3c0.1,0.1,0.1,0.2,0.2,0.3c0.3-0.8,0.4-1.6,0.4-2.5
						c0-0.2-0.2-0.3-0.3-0.2c-1.6,0.5-3.2,1.2-4.8,1.9c0.1,0.1,0.2,0.2,0.4,0.3c0.1-0.5,0.2-1.1,0.3-1.6c0-0.2-0.1-0.4-0.3-0.3
						c-3.3,1.4-6.8,2.5-10.2,3.4c0.1,0.1,0.2,0.3,0.2,0.4c0.5-0.4,0.9-0.7,1.5-0.9c0.3-0.1,0.2-0.5-0.1-0.5
						c-0.9,0.1-1.8,0.3-2.7,0.4C79.2,174.7,79.3,175.2,79.7,175.2L79.7,175.2z"/>
				</g>
			</g>
			<g>
				<g>
					<path d="M66.1,180.5c1,1.1,2.5,0,1.8-1.3c-0.1-0.2-0.3-0.2-0.4-0.1c-0.8,0.6-1.7,1.9-0.7,2.9c0.7,0.7,1.7,0.2,1.8-0.7
						c0-0.3-0.3-0.3-0.5-0.1c-0.9,1.2,0.6,2.8,1.9,2.5c0.8-0.2,1.4-0.9,1.7-1.6c0.1-0.3,0.1-0.6,0.3-0.7c0.3-0.2,0.7-0.1,1-0.1
						c0.9,0,1.8,0,2.7,0c0-0.2,0-0.3-0.1-0.5c0.3-0.6,0.6-0.8,0.9-0.4c0.2,0.1,0.3,0.3,0.5,0.5c0.2,0.2,0.4,0.5,0.6,0.7
						c0.3,0.3,0.7,0.5,1.2,0.6c0.9,0.2,1.8,0,2.5-0.6c-0.1-0.1-0.3-0.2-0.4-0.2c-0.1,0.5,0.2,0.7,0.7,0.8c0.5,0,0.9-0.2,1.3-0.3
						c0.8-0.3,1.7-0.5,2.5-0.5c1,0,0.9,0.4,1.3,1c0.1,0.3,0.3,0.4,0.6,0.6c0.8,0.4,1.9,0.2,2.8-0.1c3.1-0.7,6.2-1.4,9.3-2.3
						c0.7-0.2,1.2-0.3,1.9,0c0.8,0.3,1.6,0.5,2.4,0.7c1.4,0.3,2.9,0.4,4.4,0.3c0.3,0,0.3-0.5,0-0.5c-1.4,0.1-2.8,0-4.2-0.3
						c-0.6-0.1-1.2-0.3-1.8-0.5c-0.5-0.2-1-0.6-1.5-0.6c-0.4,0-0.9,0.3-1.3,0.4c-0.6,0.2-1.2,0.3-1.8,0.4c-1.3,0.3-2.7,0.7-4,1
						c-1.2,0.3-2.5,0.6-3.7,0.9c-0.5,0.1-1.2,0.3-1.7,0.2c-0.8-0.2-0.8-0.9-1.2-1.4c-0.4-0.5-1.1-0.4-1.6-0.4
						c-0.5,0-1.1,0.1-1.6,0.3c-0.2,0-2.3,0.7-2.2,0.4c0.1-0.3-0.2-0.4-0.4-0.2c-1,0.7-2.2,0.7-3.1-0.2c-0.3-0.3-0.6-0.8-1-1.1
						c-0.4-0.3-1.1-0.6-1.7-0.3c-0.9,0.5-0.4,2,0.6,1.6c0.3-0.1,0.2-0.5-0.1-0.5c-1.4,0-2.7,0-4.1,0c-0.1,0-0.2,0.1-0.2,0.2
						c-0.1,0.7-0.4,1.5-1,1.9c-0.5,0.3-1,0.4-1.5,0.2c-0.5-0.3-0.9-0.9-0.5-1.5c-0.2,0-0.3-0.1-0.5-0.1c-1.2-0.2-1.5-0.6-0.7-1.4
						c0.2-0.2,0.3-0.3,0.5-0.4c-0.1,0-0.3,0-0.4-0.1c-0.3,0.2-0.7,0.5-1,0.7C66.2,179.9,65.9,180.2,66.1,180.5L66.1,180.5z"/>
				</g>
			</g>
			<g>
				<g>
					<path d="M65.7,189.7c0.5-0.5,1.5,0.2,2.1,0.4c0.5,0.2,1.1,0.3,1.6,0.3c0.6,0,1.1-0.1,1.6-0.3c0.4-0.2,0.8-0.6,1.2-0.7
						c1.3-0.4,0.9,0.3,1.4,0.9c0.2,0.3,0.5,0.4,0.8,0.5c0.9,0.3,1.7-0.2,2.4-0.7c0.5-0.4,1-0.9,1.5-1.4c0.6-0.5,1.7-1.5,2.5-1.7
						c0.9-0.2,0.9,0.4,1.3,0.9c0.3,0.3,0.6,0.5,1,0.6c0.4,0.1,0.9,0,1.3,0.1c0.8,0.1,1.2,0.5,1.9,0.8c0.4,0.2,0.7,0.2,1.1,0
						c0.3-0.1,0.5-0.3,0.8-0.4c0.2-0.1,2.1-1.4,1.9,0c0,0.3,0.3,0.4,0.5,0.2c0.3-0.4,0.6-0.8,0.8-1.1c-0.1,0-0.2,0.1-0.3,0.1
						c1.3,0.9,2.8,1.2,4.3,0.8c0.2-0.1,0.2-0.4,0-0.5c-1-0.3-2-0.3-3-0.2c-0.3,0-0.4,0.4-0.1,0.5c0.7,0.1,1.4,0.2,2.1,0.1
						c1-0.2,1-0.4,1.5,0.6c0.1,0.2,0.3,0.1,0.4,0.1c1.2-0.9,2.3-1.9,3.5-2.8c-0.1,0-0.3,0-0.4-0.1c0.4,0.9,1.1,1.7,2,2.1
						c0.8,0.4,3.6,0.2,3.6,1.1c0,0.3,0.5,0.3,0.5,0c-0.1-0.8-0.6-1.2-1.3-1.3c-0.8-0.1-1.5,0.1-2.3-0.2c-1-0.3-1.7-1.1-2.1-2.1
						c-0.1-0.2-0.3-0.1-0.4-0.1c-1.2,0.9-2.3,1.9-3.5,2.8c0.1,0,0.3,0,0.4,0.1c-0.2-0.4-0.3-0.7-0.5-1.1c0-0.1-0.2-0.2-0.3-0.1
						c-1,0.4-2,0.5-3.1,0.3c0,0.2,0,0.3-0.1,0.5c1-0.1,1.9,0,2.8,0.2c0-0.2,0-0.3,0-0.5c-1.4,0.3-2.8,0.1-4-0.8
						c-0.1-0.1-0.3,0-0.3,0.1c-0.3,0.4-0.6,0.8-0.8,1.1c0.2,0.1,0.3,0.1,0.5,0.2c0.1-0.7-0.4-1.3-1.2-1.3c-0.7,0-1.2,0.7-1.8,0.9
						c-1.2,0.5-1.3-0.3-2.2-0.6c-0.5-0.2-1.1-0.1-1.6-0.1c-1.1-0.1-1.1-0.7-1.8-1.4c-0.8-0.8-1.9,0.2-2.6,0.7
						c-0.6,0.4-1.2,0.9-1.8,1.4c-0.7,0.6-1.5,1.6-2.5,1.7c-1.4,0.1-1.1-2.1-2.4-1.9c-0.7,0.2-1.2,0.9-1.9,1.1
						c-0.9,0.3-1.8,0.3-2.7,0.1c-0.9-0.3-1.9-1.2-2.7-0.3C65.2,189.6,65.5,189.9,65.7,189.7L65.7,189.7z"/>
				</g>
			</g>
		</g>
	</g>
	<g>
		<g>
			<rect x="40.2" y="172.7" class="st7" width="56.9" height="54.3"/>
			<path d="M95.4,174.4v50.9H41.9v-50.9H95.4 M98.8,171H38.5v57.7h60.4V171L98.8,171z"/>
		</g>
		<g>
			<g>
				<path d="M46.3,182c1.3-0.1,2.3-0.8,2.8-2c0.1-0.3-0.3-0.4-0.5-0.2c-0.4,0.6-0.7,1.7,0.3,1.9c0.5,0.2,1.3-0.1,1.8-0.2
					c0.7-0.2,1.3-0.4,1.9-0.7c-0.1,0-0.2-0.1-0.3-0.1c0.3,0.6,0.9,1,1.6,1.1c0.5,0,0.9,0,1.3-0.2c0.2-0.1,0.4-0.2,0.5-0.3
					c0.5-0.3,0.5-0.2,1.2-0.2c0.9,0,1.8-0.6,2.5-1.1c1.2-0.6,2.3-1.3,3.5-1.9c-0.1-0.1-0.2-0.3-0.3-0.4c-1,1.1-1.7,2.3-2.1,3.7
					c-0.1,0.3,0.4,0.4,0.5,0.1c0.4-1.3,1.1-2.4,2-3.4c0.2-0.2,0-0.5-0.3-0.4c-0.8,0.5-1.7,0.9-2.5,1.4c-0.8,0.5-1.7,1.1-2.6,1.4
					c-0.4,0.1-0.8,0-1.2,0.1c-0.3,0-0.5,0.2-0.8,0.3c-1,0.5-2.3,0.8-2.9-0.4c-0.1-0.1-0.2-0.1-0.3-0.1c-0.6,0.3-1.3,0.5-2,0.7
					c-0.3,0.1-0.6,0.2-0.9,0.2c-0.7-0.1-0.7-0.7-0.4-1.2c-0.2-0.1-0.3-0.1-0.5-0.2c-0.4,1-1.2,1.6-2.3,1.6
					C45.9,181.5,45.9,182,46.3,182L46.3,182z"/>
			</g>
		</g>
		<g>
			<g>
				<g>
					<path d="M60.8,182c0.9-0.1,1.8-0.3,2.7-0.4c0-0.2-0.1-0.3-0.1-0.5c-0.7,0.2-1.2,0.5-1.7,1c-0.2,0.2,0,0.5,0.2,0.4
						c3.5-0.9,6.9-2.1,10.2-3.4c-0.1-0.1-0.2-0.2-0.3-0.3c-0.1,0.5-0.2,1.1-0.3,1.6c0,0.2,0.2,0.4,0.4,0.3c1.5-0.7,3.1-1.3,4.6-1.9
						c-0.1-0.1-0.2-0.2-0.3-0.2c0,0.8-0.1,1.6-0.4,2.4c0,0.1,0,0.3,0.2,0.3c1.2,0.2,2.3,0.3,3.5,0.3c0-0.2,0-0.3,0-0.5
						c-4.2,0.3-8.4-0.3-12.3-1.9c0,0.2-0.1,0.3-0.1,0.5c2.5,0.5,5,1,7.6,0.9c2.6-0.1,5.1-1,7.7-0.7c-0.1-0.1-0.2-0.2-0.2-0.3
						c-0.1,0.4-0.1,0.7-0.2,1.1c0,0.2,0.2,0.4,0.4,0.3c0.6-0.3,1.1-0.5,1.7-0.8c-0.1-0.1-0.2-0.1-0.4-0.2c0.5,3.1,4.3,2.7,6.5,2
						c0.3-0.1,0.2-0.6-0.1-0.5c-2,0.6-5.4,1.2-5.9-1.7c0-0.2-0.2-0.2-0.4-0.2c-0.6,0.3-1.1,0.5-1.7,0.8c0.1,0.1,0.2,0.2,0.4,0.3
						c0.1-0.4,0.1-0.7,0.2-1.1c0-0.2-0.1-0.3-0.2-0.3c-2.4-0.2-4.8,0.5-7.2,0.7c-2.7,0.2-5.3-0.3-7.9-0.9c-0.3-0.1-0.4,0.4-0.1,0.5
						c4,1.5,8.2,2.2,12.4,1.9c0.3,0,0.3-0.5,0-0.5c-1.1,0-2.2-0.1-3.3-0.3c0.1,0.1,0.1,0.2,0.2,0.3c0.3-0.8,0.4-1.6,0.4-2.5
						c0-0.2-0.2-0.3-0.3-0.2c-1.6,0.5-3.2,1.2-4.8,1.9c0.1,0.1,0.2,0.2,0.4,0.3c0.1-0.5,0.2-1.1,0.3-1.6c0-0.2-0.1-0.4-0.3-0.3
						c-3.3,1.4-6.8,2.5-10.2,3.4c0.1,0.1,0.2,0.3,0.2,0.4c0.5-0.4,0.9-0.7,1.5-0.9c0.3-0.1,0.2-0.5-0.1-0.5
						c-0.9,0.1-1.8,0.3-2.7,0.4C60.3,181.5,60.5,182,60.8,182L60.8,182z"/>
				</g>
			</g>
			<g>
				<g>
					<path d="M47.2,187.3c1,1.1,2.5,0,1.8-1.3c-0.1-0.2-0.3-0.2-0.4-0.1c-0.8,0.6-1.7,1.9-0.7,2.9c0.7,0.7,1.7,0.2,1.8-0.7
						c0-0.3-0.3-0.3-0.5-0.1c-0.9,1.2,0.6,2.8,1.9,2.5c0.8-0.2,1.4-0.9,1.7-1.6c0.1-0.3,0.1-0.6,0.3-0.7c0.3-0.2,0.7-0.1,1-0.1
						c0.9,0,1.8,0,2.7,0c0-0.2,0-0.3-0.1-0.5c0.3-0.6,0.6-0.8,0.9-0.4c0.2,0.1,0.3,0.3,0.5,0.5c0.2,0.2,0.4,0.5,0.6,0.7
						c0.3,0.3,0.7,0.5,1.2,0.6c0.9,0.2,1.8,0,2.5-0.6c-0.1-0.1-0.3-0.2-0.4-0.2c-0.1,0.5,0.2,0.7,0.7,0.8c0.5,0,0.9-0.2,1.3-0.3
						c0.8-0.3,1.7-0.5,2.5-0.5c1,0,0.9,0.4,1.3,1c0.1,0.3,0.3,0.4,0.6,0.6c0.8,0.4,1.9,0.2,2.8-0.1c3.1-0.7,6.2-1.4,9.3-2.3
						c0.7-0.2,1.2-0.3,1.9,0c0.8,0.3,1.6,0.5,2.4,0.7c1.4,0.3,2.9,0.4,4.4,0.3c0.3,0,0.3-0.5,0-0.5c-1.4,0.1-2.8,0-4.2-0.3
						c-0.6-0.1-1.2-0.3-1.8-0.5c-0.5-0.2-1-0.6-1.5-0.6c-0.4,0-0.9,0.3-1.3,0.4c-0.6,0.2-1.2,0.3-1.8,0.4c-1.3,0.3-2.7,0.7-4,1
						c-1.2,0.3-2.5,0.6-3.7,0.9c-0.5,0.1-1.2,0.3-1.7,0.2c-0.8-0.2-0.8-0.9-1.2-1.4c-0.4-0.5-1.1-0.4-1.6-0.4
						c-0.5,0-1.1,0.1-1.6,0.3c-0.2,0-2.3,0.7-2.2,0.4c0.1-0.3-0.2-0.4-0.4-0.2c-1,0.7-2.2,0.7-3.1-0.2c-0.3-0.3-0.6-0.8-1-1.1
						c-0.4-0.3-1.1-0.6-1.7-0.3c-0.9,0.5-0.4,2,0.6,1.6c0.3-0.1,0.2-0.5-0.1-0.5c-1.4,0-2.7,0-4.1,0c-0.1,0-0.2,0.1-0.2,0.2
						c-0.1,0.7-0.4,1.5-1,1.9c-0.5,0.3-1,0.4-1.5,0.2c-0.5-0.3-0.9-0.9-0.5-1.5c-0.2,0-0.3-0.1-0.5-0.1c-1.2-0.2-1.5-0.6-0.7-1.4
						c0.2-0.2,0.3-0.3,0.5-0.4c-0.1,0-0.3,0-0.4-0.1c-0.3,0.2-0.7,0.5-1,0.7C47.3,186.7,47,187,47.2,187.3L47.2,187.3z"/>
				</g>
			</g>
			<g>
				<g>
					<path d="M46.9,196.5c0.5-0.5,1.5,0.2,2.1,0.4c0.5,0.2,1.1,0.3,1.6,0.3c0.6,0,1.1-0.1,1.6-0.3c0.4-0.2,0.8-0.6,1.2-0.7
						c1.3-0.4,0.9,0.3,1.4,0.9c0.2,0.3,0.5,0.4,0.8,0.5c0.9,0.3,1.7-0.2,2.4-0.7c0.5-0.4,1-0.9,1.5-1.4c0.6-0.5,1.7-1.5,2.5-1.7
						c0.9-0.2,0.9,0.4,1.3,0.9c0.3,0.3,0.6,0.5,1,0.6c0.4,0.1,0.9,0,1.3,0.1c0.8,0.1,1.2,0.5,1.9,0.8c0.4,0.2,0.7,0.2,1.1,0
						c0.3-0.1,0.5-0.3,0.8-0.4c0.2-0.1,2.1-1.4,1.9,0c0,0.3,0.3,0.4,0.5,0.2c0.3-0.4,0.6-0.8,0.8-1.1c-0.1,0-0.2,0.1-0.3,0.1
						c1.3,0.9,2.8,1.2,4.3,0.8c0.2-0.1,0.2-0.4,0-0.5c-1-0.3-2-0.3-3-0.2c-0.3,0-0.4,0.4-0.1,0.5c0.7,0.1,1.4,0.2,2.1,0.1
						c1-0.2,1-0.4,1.5,0.6c0.1,0.2,0.3,0.1,0.4,0.1c1.2-0.9,2.3-1.9,3.5-2.8c-0.1,0-0.3,0-0.4-0.1c0.4,0.9,1.1,1.7,2,2.1
						c0.8,0.4,3.6,0.2,3.6,1.1c0,0.3,0.5,0.3,0.5,0c-0.1-0.8-0.6-1.2-1.3-1.3c-0.8-0.1-1.5,0.1-2.3-0.2c-1-0.3-1.7-1.1-2.1-2.1
						c-0.1-0.2-0.3-0.1-0.4-0.1c-1.2,0.9-2.3,1.9-3.5,2.8c0.1,0,0.3,0,0.4,0.1c-0.2-0.4-0.3-0.7-0.5-1.1c0-0.1-0.2-0.2-0.3-0.1
						c-1,0.4-2,0.5-3.1,0.3c0,0.2,0,0.3-0.1,0.5c1-0.1,1.9,0,2.8,0.2c0-0.2,0-0.3,0-0.5c-1.4,0.3-2.8,0.1-4-0.8
						c-0.1-0.1-0.3,0-0.3,0.1c-0.3,0.4-0.6,0.8-0.8,1.1c0.2,0.1,0.3,0.1,0.5,0.2c0.1-0.7-0.4-1.3-1.2-1.3c-0.7,0-1.2,0.7-1.8,0.9
						c-1.2,0.5-1.3-0.3-2.2-0.6c-0.5-0.2-1.1-0.1-1.6-0.1c-1.1-0.1-1.1-0.7-1.8-1.4c-0.8-0.8-1.9,0.2-2.6,0.7
						c-0.6,0.4-1.2,0.9-1.8,1.4c-0.7,0.6-1.5,1.6-2.5,1.7c-1.4,0.1-1.1-2.1-2.4-1.9c-0.7,0.2-1.2,0.9-1.9,1.1
						c-0.9,0.3-1.8,0.3-2.7,0.1c-0.9-0.3-1.9-1.2-2.7-0.3C46.3,196.4,46.6,196.7,46.9,196.5L46.9,196.5z"/>
				</g>
			</g>
		</g>
	</g>
	<g>
		<g>
			<rect x="22" y="181.8" class="st7" width="56.9" height="54.3"/>
			<path d="M77.3,183.5v50.9H23.7v-50.9H77.3 M80.7,180.1H20.3v57.7h60.4V180.1L80.7,180.1z"/>
		</g>
		<g>
			<g>
				<path d="M28.1,191.1c1.3-0.1,2.3-0.8,2.8-2c0.1-0.3-0.3-0.4-0.5-0.2c-0.4,0.6-0.7,1.7,0.3,1.9c0.5,0.2,1.3-0.1,1.8-0.2
					c0.7-0.2,1.3-0.4,1.9-0.7c-0.1,0-0.2-0.1-0.3-0.1c0.3,0.6,0.9,1,1.6,1.1c0.5,0,0.9,0,1.3-0.2c0.2-0.1,0.4-0.2,0.5-0.3
					c0.5-0.3,0.5-0.2,1.2-0.2c0.9,0,1.8-0.6,2.5-1.1c1.2-0.6,2.3-1.3,3.5-1.9c-0.1-0.1-0.2-0.3-0.3-0.4c-1,1.1-1.7,2.3-2.1,3.7
					c-0.1,0.3,0.4,0.4,0.5,0.1c0.4-1.3,1.1-2.4,2-3.4c0.2-0.2,0-0.5-0.3-0.4c-0.8,0.5-1.7,0.9-2.5,1.4c-0.8,0.5-1.7,1.1-2.6,1.4
					c-0.4,0.1-0.8,0-1.2,0.1c-0.3,0-0.5,0.2-0.8,0.3c-1,0.5-2.3,0.8-2.9-0.4c-0.1-0.1-0.2-0.1-0.3-0.1c-0.6,0.3-1.3,0.5-2,0.7
					c-0.3,0.1-0.6,0.2-0.9,0.2c-0.7-0.1-0.7-0.7-0.4-1.2c-0.2-0.1-0.3-0.1-0.5-0.2c-0.4,1-1.2,1.6-2.3,1.6
					C27.8,190.6,27.8,191.1,28.1,191.1L28.1,191.1z"/>
			</g>
		</g>
		<g>
			<g>
				<g>
					<path d="M42.6,191.1c0.9-0.1,1.8-0.3,2.7-0.4c0-0.2-0.1-0.3-0.1-0.5c-0.7,0.2-1.2,0.5-1.7,1c-0.2,0.2,0,0.5,0.2,0.4
						c3.5-0.9,6.9-2.1,10.2-3.4c-0.1-0.1-0.2-0.2-0.3-0.3c-0.1,0.5-0.2,1.1-0.3,1.6c0,0.2,0.2,0.4,0.4,0.3c1.5-0.7,3.1-1.3,4.6-1.9
						c-0.1-0.1-0.2-0.2-0.3-0.2c0,0.8-0.1,1.6-0.4,2.4c0,0.1,0,0.3,0.2,0.3c1.2,0.2,2.3,0.3,3.5,0.3c0-0.2,0-0.3,0-0.5
						c-4.2,0.3-8.4-0.3-12.3-1.9c0,0.2-0.1,0.3-0.1,0.5c2.5,0.5,5,1,7.6,0.9c2.6-0.1,5.1-1,7.7-0.7c-0.1-0.1-0.2-0.2-0.2-0.3
						c-0.1,0.4-0.1,0.7-0.2,1.1c0,0.2,0.2,0.4,0.4,0.3c0.6-0.3,1.1-0.5,1.7-0.8c-0.1-0.1-0.2-0.1-0.4-0.2c0.5,3.1,4.3,2.7,6.5,2
						c0.3-0.1,0.2-0.6-0.1-0.5c-2,0.6-5.4,1.2-5.9-1.7c0-0.2-0.2-0.2-0.4-0.2c-0.6,0.3-1.1,0.5-1.7,0.8c0.1,0.1,0.2,0.2,0.4,0.3
						c0.1-0.4,0.1-0.7,0.2-1.1c0-0.2-0.1-0.3-0.2-0.3c-2.4-0.2-4.8,0.5-7.2,0.7c-2.7,0.2-5.3-0.3-7.9-0.9c-0.3-0.1-0.4,0.4-0.1,0.5
						c4,1.5,8.2,2.2,12.4,1.9c0.3,0,0.3-0.5,0-0.5c-1.1,0-2.2-0.1-3.3-0.3c0.1,0.1,0.1,0.2,0.2,0.3c0.3-0.8,0.4-1.6,0.4-2.5
						c0-0.2-0.2-0.3-0.3-0.2c-1.6,0.5-3.2,1.2-4.8,1.9c0.1,0.1,0.2,0.2,0.4,0.3c0.1-0.5,0.2-1.1,0.3-1.6c0-0.2-0.1-0.4-0.3-0.3
						c-3.3,1.4-6.8,2.5-10.2,3.4c0.1,0.1,0.2,0.3,0.2,0.4c0.5-0.4,0.9-0.7,1.5-0.9c0.3-0.1,0.2-0.5-0.1-0.5
						c-0.9,0.1-1.8,0.3-2.7,0.4C42.1,190.7,42.3,191.2,42.6,191.1L42.6,191.1z"/>
				</g>
			</g>
			<g>
				<g>
					<path d="M29,196.4c1,1.1,2.5,0,1.8-1.3c-0.1-0.2-0.3-0.2-0.4-0.1c-0.8,0.6-1.7,1.9-0.7,2.9c0.7,0.7,1.7,0.2,1.8-0.7
						c0-0.3-0.3-0.3-0.5-0.1c-0.9,1.2,0.6,2.8,1.9,2.5c0.8-0.2,1.4-0.9,1.7-1.6c0.1-0.3,0.1-0.6,0.3-0.7c0.3-0.2,0.7-0.1,1-0.1
						c0.9,0,1.8,0,2.7,0c0-0.2,0-0.3-0.1-0.5c0.3-0.6,0.6-0.8,0.9-0.4c0.2,0.1,0.3,0.3,0.5,0.5c0.2,0.2,0.4,0.5,0.6,0.7
						c0.3,0.3,0.7,0.5,1.2,0.6c0.9,0.2,1.8,0,2.5-0.6c-0.1-0.1-0.3-0.2-0.4-0.2c-0.1,0.5,0.2,0.7,0.7,0.8c0.5,0,0.9-0.2,1.3-0.3
						c0.8-0.3,1.7-0.5,2.5-0.5c1,0,0.9,0.4,1.3,1c0.1,0.3,0.3,0.4,0.6,0.6c0.8,0.4,1.9,0.2,2.8-0.1c3.1-0.7,6.2-1.4,9.3-2.3
						c0.7-0.2,1.2-0.3,1.9,0c0.8,0.3,1.6,0.5,2.4,0.7c1.4,0.3,2.9,0.4,4.4,0.3c0.3,0,0.3-0.5,0-0.5c-1.4,0.1-2.8,0-4.2-0.3
						c-0.6-0.1-1.2-0.3-1.8-0.5c-0.5-0.2-1-0.6-1.5-0.6c-0.4,0-0.9,0.3-1.3,0.4c-0.6,0.2-1.2,0.3-1.8,0.4c-1.3,0.3-2.7,0.7-4,1
						c-1.2,0.3-2.5,0.6-3.7,0.9c-0.5,0.1-1.2,0.3-1.7,0.2c-0.8-0.2-0.8-0.9-1.2-1.4c-0.4-0.5-1.1-0.4-1.6-0.4
						c-0.5,0-1.1,0.1-1.6,0.3c-0.2,0-2.3,0.7-2.2,0.4c0.1-0.3-0.2-0.4-0.4-0.2c-1,0.7-2.2,0.7-3.1-0.2c-0.3-0.3-0.6-0.8-1-1.1
						c-0.4-0.3-1.1-0.6-1.7-0.3c-0.9,0.5-0.4,2,0.6,1.6c0.3-0.1,0.2-0.5-0.1-0.5c-1.4,0-2.7,0-4.1,0c-0.1,0-0.2,0.1-0.2,0.2
						c-0.1,0.7-0.4,1.5-1,1.9c-0.5,0.3-1,0.4-1.5,0.2c-0.5-0.3-0.9-0.9-0.5-1.5c-0.2,0-0.3-0.1-0.5-0.1c-1.2-0.2-1.5-0.6-0.7-1.4
						c0.2-0.2,0.3-0.3,0.5-0.4c-0.1,0-0.3,0-0.4-0.1c-0.3,0.2-0.7,0.5-1,0.7C29.2,195.8,28.8,196.2,29,196.4L29,196.4z"/>
				</g>
			</g>
			<g>
				<g>
					<path d="M28.7,205.6c0.5-0.5,1.5,0.2,2.1,0.4c0.5,0.2,1.1,0.3,1.6,0.3c0.6,0,1.1-0.1,1.6-0.3c0.4-0.2,0.8-0.6,1.2-0.7
						c1.3-0.4,0.9,0.3,1.4,0.9c0.2,0.3,0.5,0.4,0.8,0.5c0.9,0.3,1.7-0.2,2.4-0.7c0.5-0.4,1-0.9,1.5-1.4c0.6-0.5,1.7-1.5,2.5-1.7
						c0.9-0.2,0.9,0.4,1.3,0.9c0.3,0.3,0.6,0.5,1,0.6c0.4,0.1,0.9,0,1.3,0.1c0.8,0.1,1.2,0.5,1.9,0.8c0.4,0.2,0.7,0.2,1.1,0
						c0.3-0.1,0.5-0.3,0.8-0.4c0.2-0.1,2.1-1.4,1.9,0c0,0.3,0.3,0.4,0.5,0.2c0.3-0.4,0.6-0.8,0.8-1.1c-0.1,0-0.2,0.1-0.3,0.1
						c1.3,0.9,2.8,1.2,4.3,0.8c0.2-0.1,0.2-0.4,0-0.5c-1-0.3-2-0.3-3-0.2c-0.3,0-0.4,0.4-0.1,0.5c0.7,0.1,1.4,0.2,2.1,0.1
						c1-0.2,1-0.4,1.5,0.6c0.1,0.2,0.3,0.1,0.4,0.1c1.2-0.9,2.3-1.9,3.5-2.8c-0.1,0-0.3,0-0.4-0.1c0.4,0.9,1.1,1.7,2,2.1
						c0.8,0.4,3.6,0.2,3.6,1.1c0,0.3,0.5,0.3,0.5,0c-0.1-0.8-0.6-1.2-1.3-1.3c-0.8-0.1-1.5,0.1-2.3-0.2c-1-0.3-1.7-1.1-2.1-2.1
						c-0.1-0.2-0.3-0.1-0.4-0.1c-1.2,0.9-2.3,1.9-3.5,2.8c0.1,0,0.3,0,0.4,0.1c-0.2-0.4-0.3-0.7-0.5-1.1c0-0.1-0.2-0.2-0.3-0.1
						c-1,0.4-2,0.5-3.1,0.3c0,0.2,0,0.3-0.1,0.5c1-0.1,1.9,0,2.8,0.2c0-0.2,0-0.3,0-0.5c-1.4,0.3-2.8,0.1-4-0.8
						c-0.1-0.1-0.3,0-0.3,0.1c-0.3,0.4-0.6,0.8-0.8,1.1c0.2,0.1,0.3,0.1,0.5,0.2c0.1-0.7-0.4-1.3-1.2-1.3c-0.7,0-1.2,0.7-1.8,0.9
						c-1.2,0.5-1.3-0.3-2.2-0.6c-0.5-0.2-1.1-0.1-1.6-0.1c-1.1-0.1-1.1-0.7-1.8-1.4c-0.8-0.8-1.9,0.2-2.6,0.7
						c-0.6,0.4-1.2,0.9-1.8,1.4c-0.7,0.6-1.5,1.6-2.5,1.7c-1.4,0.1-1.1-2.1-2.4-1.9c-0.7,0.2-1.2,0.9-1.9,1.1
						c-0.9,0.3-1.8,0.3-2.7,0.1c-0.9-0.3-1.9-1.2-2.7-0.3C28.1,205.5,28.5,205.9,28.7,205.6L28.7,205.6z"/>
				</g>
			</g>
		</g>
	</g>
	<g>
		<rect x="17.8" y="213.7" class="st7" width="102.5" height="56.4"/>
		<path d="M117.9,216.2v51.5H20.3v-51.5H117.9 M122.8,211.2H15.4v61.4h107.4V211.2L122.8,211.2z"/>
	</g>
</g>
<g>
	<g>
		<g>
			
				<rect x="102.9" y="127.6" transform="matrix(0.1564 -0.9877 0.9877 0.1564 -50.6148 225.0261)" class="st13" width="7" height="29"/>
		</g>
		<g>
			
				<rect x="91.9" y="138.6" transform="matrix(0.1564 -0.9877 0.9877 0.1564 -50.6148 225.0261)" class="st13" width="29" height="7"/>
		</g>
	</g>
	<g>
		<g>
			<rect x="11.4" y="315.4" transform="matrix(0.891 -0.454 0.454 0.891 -141.9583 46.5004)" class="st13" width="29" height="7"/>
		</g>
		<g>
			<rect x="22.4" y="304.4" transform="matrix(0.891 -0.454 0.454 0.891 -141.9583 46.5004)" class="st13" width="7" height="29"/>
		</g>
	</g>
	<g>
		<g>
			<rect x="50.1" y="505.8" transform="matrix(0.454 -0.891 0.891 0.454 -418.4845 335.5994)" class="st13" width="29" height="7"/>
		</g>
		<g>
			<rect x="61.1" y="494.8" transform="matrix(0.454 -0.891 0.891 0.454 -418.4845 335.5994)" class="st13" width="7" height="29"/>
		</g>
	</g>
	<g>
		<g>
			
				<rect x="204.3" y="626" transform="matrix(0.9877 -0.1564 0.1564 0.9877 -97.6369 40.3912)" class="st13" width="7" height="29"/>
		</g>
		<g>
			
				<rect x="193.3" y="637" transform="matrix(0.9877 -0.1564 0.1564 0.9877 -97.6369 40.3912)" class="st13" width="29" height="7"/>
		</g>
	</g>
	<g>
		<g>
			
				<rect x="397.3" y="648" transform="matrix(0.7071 -0.7071 0.7071 0.7071 -351.0643 477.4417)" class="st13" width="7" height="29"/>
		</g>
		<g>
			
				<rect x="386.3" y="659" transform="matrix(0.7071 -0.7071 0.7071 0.7071 -351.0643 477.4417)" class="st13" width="29" height="7"/>
		</g>
	</g>
	<g>
		<g>
			
				<rect x="566.4" y="552.3" transform="matrix(0.1564 -0.9877 0.9877 0.1564 -79.1535 1041.0206)" class="st13" width="7" height="29"/>
		</g>
		<g>
			
				<rect x="555.4" y="563.3" transform="matrix(0.1564 -0.9877 0.9877 0.1564 -79.1535 1041.0206)" class="st13" width="29" height="7"/>
		</g>
	</g>
	<g>
		<g>
			
				<rect x="635.9" y="386.6" transform="matrix(0.891 -0.454 0.454 0.891 -106.2064 337.8049)" class="st13" width="29" height="7"/>
		</g>
		<g>
			
				<rect x="646.9" y="375.6" transform="matrix(0.891 -0.454 0.454 0.891 -106.2064 337.8049)" class="st13" width="7" height="29"/>
		</g>
	</g>
	<g>
		<g>
			<rect x="597.2" y="196.2" transform="matrix(0.454 -0.891 0.891 0.454 156.0285 654.0972)" class="st13" width="29" height="7"/>
		</g>
		<g>
			<rect x="608.2" y="185.2" transform="matrix(0.454 -0.891 0.891 0.454 156.0285 654.0972)" class="st13" width="7" height="29"/>
		</g>
	</g>
	<g>
		<g>
			<rect x="465" y="54" transform="matrix(0.9877 -0.1564 0.1564 0.9877 -4.9477 74.1329)" class="st13" width="7" height="29"/>
		</g>
		<g>
			<rect x="454" y="65" transform="matrix(0.9877 -0.1564 0.1564 0.9877 -4.9477 74.1329)" class="st13" width="29" height="7"/>
		</g>
	</g>
	<g>
		<g>
			<rect x="272" y="32" transform="matrix(0.7071 -0.7071 0.7071 0.7071 47.8116 208.4275)" class="st13" width="7" height="29"/>
		</g>
		<g>
			<rect x="261" y="43" transform="matrix(0.7071 -0.7071 0.7071 0.7071 47.8116 208.4275)" class="st13" width="29" height="7"/>
		</g>
	</g>
</g>
</svg>
