<?xml version="1.0" encoding="UTF-8" standalone="no"?>
<svg
   xmlns:osb="http://www.openswatchbook.org/uri/2009/osb"
   xmlns:dc="http://purl.org/dc/elements/1.1/"
   xmlns:cc="http://creativecommons.org/ns#"
   xmlns:rdf="http://www.w3.org/1999/02/22-rdf-syntax-ns#"
   xmlns:svg="http://www.w3.org/2000/svg"
   xmlns="http://www.w3.org/2000/svg"
   xmlns:sodipodi="http://sodipodi.sourceforge.net/DTD/sodipodi-0.dtd"
   xmlns:inkscape="http://www.inkscape.org/namespaces/inkscape"
   width="105.1mm"
   height="148mm"
   viewBox="0 0 372.40154 524.40944"
   id="svg2"
   version="1.1"
   inkscape:version="1.0 (4035a4fb49, 2020-05-01)"
   sodipodi:docname="project_3.svg">
  <defs
     id="defs4">
    <linearGradient
       id="linearGradient5773"
       osb:paint="solid">
      <stop
         style="stop-color:#e4ffff;stop-opacity:1;"
         offset="0"
         id="stop5775" />
    </linearGradient>
  </defs>
  <sodipodi:namedview
     id="base"
     pagecolor="#ffffff"
     bordercolor="#666666"
     borderopacity="1.0"
     inkscape:pageopacity="0.0"
     inkscape:pageshadow="2"
     inkscape:zoom="1"
     inkscape:cx="180.5386"
     inkscape:cy="385.38634"
     inkscape:document-units="px"
     inkscape:current-layer="layer3"
     showgrid="false"
     inkscape:snap-object-midpoints="true"
     inkscape:window-width="1920"
     inkscape:window-height="1017"
     inkscape:window-x="-8"
     inkscape:window-y="-8"
     inkscape:window-maximized="1"
     fit-margin-top="0"
     fit-margin-left="0"
     fit-margin-right="0"
     fit-margin-bottom="0"
     inkscape:snap-others="true"
     units="mm"
     inkscape:snap-bbox="true"
     inkscape:snap-bbox-midpoints="true"
     inkscape:bbox-nodes="false"
     inkscape:snap-grids="true"
     inkscape:snap-to-guides="true"
     inkscape:snap-nodes="true"
     inkscape:document-rotation="0" />
  <metadata
     id="metadata7">
    <rdf:RDF>
      <cc:Work
         rdf:about="">
        <dc:format>image/svg+xml</dc:format>
        <dc:type
           rdf:resource="http://purl.org/dc/dcmitype/StillImage" />
        <dc:title></dc:title>
      </cc:Work>
    </rdf:RDF>
  </metadata>
  <g
     inkscape:groupmode="layer"
     id="layer2"
     inkscape:label="Frame"
     style="display:inline"
     transform="translate(-2.0209387,-531.99266)">
    <rect
       style="fill:#1a67ba;fill-opacity:1;fill-rule:evenodd;stroke:none;stroke-width:1.00124px;stroke-linecap:butt;stroke-linejoin:miter;stroke-opacity:1"
       id="rect3336-3"
       width="372.04251"
       height="523.84784"
       x="2.0209301"
       y="532.55432"
       ry="14"
       rx="14" />
  </g>
  <g
     inkscape:groupmode="layer"
     id="layer22"
     inkscape:label="Frame_inner 2" />
  <g
     inkscape:groupmode="layer"
     id="layer3"
     inkscape:label="Frame_label">
    <path
       style="opacity:1;fill:#ff7fa4;fill-opacity:1;fill-rule:evenodd;stroke:none;stroke-width:3.54331;stroke-linejoin:round;stroke-miterlimit:4;stroke-dasharray:none;stroke-opacity:1"
       d="M 11.275111,11.896078 361.44299,20.921081 361.20243,111.7776 12.01501,119.74526 Z"
       id="rect4272"
       inkscape:connector-curvature="0"
       sodipodi:nodetypes="ccccc" />
  </g>
  <g
     inkscape:groupmode="layer"
     id="layer11"
     inkscape:label="x2_icon 1"
     style="display:inline">
    <text
       xml:space="preserve"
       style="font-style:normal;font-weight:normal;line-height:0%;font-family:sans-serif;letter-spacing:0px;word-spacing:0px;fill:#000000;fill-opacity:1;stroke:none;stroke-width:1px;stroke-linecap:butt;stroke-linejoin:miter;stroke-opacity:1"
       x="-309.10669"
       y="23.878862"
       id="text4218"><tspan
         sodipodi:role="line"
         id="tspan4220"
         x="-309.10669"
         y="23.878862"
         style="font-size:40px;line-height:1.25"> </tspan></text>
  </g>
  <g
     inkscape:groupmode="layer"
     id="layer18"
     inkscape:label="label_text_design"
     style="display:inline">
    <g
       transform="translate(-3.9805745e-8,44.999999)"
       id="g983">
      <path
         id="path2"
         d="m 204.90491,278.83223 h -37.76733 l -5.90125,77.86741 c -1.17729,14.71028 10.25711,27.30806 24.78492,27.30806 v 0 c 14.52779,0 25.96177,-12.59778 24.78534,-27.30806 z"
         style="fill:#373748;stroke-width:0.438023" />
      <path
         id="path4"
         d="m 204.90491,278.83223 h -18.88366 c 0,0 0,88.73942 0,105.17547 v 0 c 14.52779,0 25.96177,-12.59778 24.78534,-27.30806 z"
         style="fill:#1c1c24;stroke-width:0.438023" />
      <polygon
         id="polygon6"
         points="387.218,202.495 398.884,0 113.116,0 124.782,202.495 "
         style="fill:#e68d2c"
         transform="matrix(0.43458672,0,0,0.44148524,74.767044,157.96726)" />
      <polygon
         id="polygon8"
         points="387.218,202.495 398.884,0 256,0 256,202.495 "
         style="fill:#e06b34"
         transform="matrix(0.43458672,0,0,0.44148524,74.767044,157.96726)" />
      <rect
         id="rect10"
         height="42.03381"
         width="14.511285"
         style="fill:#e9e9e9;stroke-width:0.438023"
         x="148.40778"
         y="157.96725" />
      <rect
         id="rect12"
         height="42.03381"
         width="14.511285"
         style="fill:#d4d4d4;stroke-width:0.438023"
         x="209.12343"
         y="157.96725" />
      <rect
         id="rect14"
         height="32.638123"
         width="14.511285"
         style="fill:#e9e9e9;stroke-width:0.438023"
         x="178.76538"
         y="157.96725" />
      <rect
         id="rect16"
         height="32.638123"
         width="7.2558589"
         style="fill:#d4d4d4;stroke-width:0.438023"
         x="186.02124"
         y="157.96725" />
      <path
         id="path18"
         d="M 232.64979,282.93363 H 139.3927 c -10.23365,0 -18.52904,-8.42751 -18.52904,-18.82316 v -22.07294 h 130.31517 v 22.07294 c 0,10.39565 -8.29539,18.82316 -18.52904,18.82316 z"
         style="fill:#53536c;stroke-width:0.438023" />
      <path
         id="path20"
         d="m 232.64979,282.93363 h -46.62854 v -40.8961 h 65.15758 v 22.07294 c 0,10.39565 -8.29539,18.82316 -18.52904,18.82316 z"
         style="fill:#373748;fill-opacity:1;stroke-width:0.438023" />
    </g>
    <g
       transform="matrix(0.45959841,0,0,0.48900522,68.364054,148.59226)"
       id="g22" />
    <g
       transform="matrix(0.45959841,0,0,0.48900522,68.364054,148.59226)"
       id="g24" />
    <g
       transform="matrix(0.45959841,0,0,0.48900522,68.364054,148.59226)"
       id="g26" />
    <g
       transform="matrix(0.45959841,0,0,0.48900522,68.364054,148.59226)"
       id="g28" />
    <g
       transform="matrix(0.45959841,0,0,0.48900522,68.364054,148.59226)"
       id="g30" />
    <g
       transform="matrix(0.45959841,0,0,0.48900522,68.364054,148.59226)"
       id="g32" />
    <g
       transform="matrix(0.45959841,0,0,0.48900522,68.364054,148.59226)"
       id="g34" />
    <g
       transform="matrix(0.45959841,0,0,0.48900522,68.364054,148.59226)"
       id="g36" />
    <g
       transform="matrix(0.45959841,0,0,0.48900522,68.364054,148.59226)"
       id="g38" />
    <g
       transform="matrix(0.45959841,0,0,0.48900522,68.364054,148.59226)"
       id="g40" />
    <g
       transform="matrix(0.45959841,0,0,0.48900522,68.364054,148.59226)"
       id="g42" />
    <g
       transform="matrix(0.45959841,0,0,0.48900522,68.364054,148.59226)"
       id="g44" />
    <g
       transform="matrix(0.45959841,0,0,0.48900522,68.364054,148.59226)"
       id="g46" />
    <g
       transform="matrix(0.45959841,0,0,0.48900522,68.364054,148.59226)"
       id="g48" />
    <g
       transform="matrix(0.45959841,0,0,0.48900522,68.364054,148.59226)"
       id="g50" />
    <g
       style="display:inline;fill:#000000"
       id="g4253-7-8"
       transform="matrix(0.91,0,0,1.68,500.08518,-48.932207)">
      <g
         style="fill:#000000"
         id="g4421"
         transform="translate(1.7662494,107.08007)">
        <g
           aria-label=" ESIGN"
           style="font-style:normal;font-variant:normal;font-weight:normal;font-stretch:normal;line-height:0%;font-family:source-sans;-inkscape-font-specification:source-sans;letter-spacing:0px;word-spacing:0px;fill:#000000;fill-opacity:1;stroke:none;stroke-width:1px;stroke-linecap:butt;stroke-linejoin:miter;stroke-opacity:1"
           id="text4642">
          <path
             d="m -379.34866,-19.634789 h 16.88 v -5.2 h -10.64 v -5.56 h 8.76 v -5.2 h -8.76 v -4.88 h 10.24 v -5.2 h -16.48 z"
             style="font-style:normal;font-variant:normal;font-weight:bold;font-stretch:normal;font-family:'Source Sans Pro';-inkscape-font-specification:'Source Sans Pro Bold';fill:#000000"
             id="path10519" />
          <path
             d="m -349.23741,-19.154789 c 6.28,0 9.92,-3.8 9.92,-8.16 0,-3.64 -1.92,-5.8 -5.16,-7.08 l -3.24,-1.32 c -2.32,-0.92 -3.96,-1.44 -3.96,-2.96 0,-1.36 1.24,-2.12 3.16,-2.12 1.64,0 3.44,0.68 5.2,1.92 l 3.24,-4.04 c -2.24,-2.08 -5.32,-3.24 -8.44,-3.24 -5.52,0 -9.44,3.52 -9.44,7.88 0,3.76 2.52,6.04 5.28,7.12 l 3.32,1.44 c 2.28,0.92 3.68,1.4 3.68,2.92 0,1.4 -1.08,2.28 -3.44,2.28 -2.2,0 -4.72,-0.88 -6.56,-2.48 l -3.28,4.04 c 2.72,2.6 6.2,3.8 9.72,3.8 z"
             style="font-style:normal;font-variant:normal;font-weight:bold;font-stretch:normal;font-family:'Source Sans Pro';-inkscape-font-specification:'Source Sans Pro Bold';fill:#000000"
             id="path10521" />
          <path
             d="m -334.97366,-19.634789 h 6.24 v -26.04 h -6.24 z"
             style="font-style:normal;font-variant:normal;font-weight:bold;font-stretch:normal;font-family:'Source Sans Pro';-inkscape-font-specification:'Source Sans Pro Bold';fill:#000000"
             id="path10523" />
          <path
             d="m -311.02804,-19.154789 c 3.68,0 6.88,-1.4 8.68,-3.16 v -12.16 h -9.68 v 5.08 h 4.16 v 4.2 c -0.56,0.44 -1.56,0.68 -2.48,0.68 -4.84,0 -7.2,-3 -7.2,-8.2 0,-5.04 2.8,-8.08 6.64,-8.08 2.2,0 3.56,0.64 4.84,1.8 l 3.28,-3.76 c -1.8,-1.88 -4.52,-3.4 -8.32,-3.4 -6.96,0 -12.8,5 -12.8,13.68 0,8.8 5.68,13.32 12.88,13.32 z"
             style="font-style:normal;font-variant:normal;font-weight:bold;font-stretch:normal;font-family:'Source Sans Pro';-inkscape-font-specification:'Source Sans Pro Bold';fill:#000000"
             id="path10525" />
          <path
             d="m -297.08304,-19.634789 h 5.92 v -8.76 c 0,-3.12 -0.48,-6.72 -0.8,-9.6 h 0.16 c 0.8,2.04 1.64,4.12 2.52,5.88 l 6.44,12.48 h 6.4 v -26.04 h -5.88 v 8.76 c 0,3.08 0.48,6.8 0.8,9.6 h -0.16 c -0.8,-2.04 -1.64,-4.12 -2.56,-5.88 l -6.4,-12.48 h -6.44 z"
             style="font-style:normal;font-variant:normal;font-weight:bold;font-stretch:normal;font-family:'Source Sans Pro';-inkscape-font-specification:'Source Sans Pro Bold';fill:#000000"
             id="path10527" />
        </g>
        <g
           aria-label="D"
           style="font-style:normal;font-weight:normal;line-height:0%;font-family:sans-serif;letter-spacing:0px;word-spacing:0px;fill:#000000;fill-opacity:1;stroke:none;stroke-width:1px;stroke-linecap:butt;stroke-linejoin:miter;stroke-opacity:1"
           id="text4249-1-2">
          <path
             d="m -416.59742,-19.154787 h 10.86 c 11.64,0 18.84,-6.72 18.84,-19.8 0,-13.02 -7.2,-19.44 -19.2,-19.44 h -10.5 z m 7.14,-5.76 v -27.66 h 2.88 c 7.8,0 12.3,4.02 12.3,13.62 0,9.66 -4.5,14.04 -12.3,14.04 z"
             style="font-style:normal;font-variant:normal;font-weight:600;font-stretch:normal;font-size:60px;line-height:1.25;font-family:'Source Sans Pro';-inkscape-font-specification:'Source Sans Pro Semi-Bold';fill:#000000"
             id="path10530" />
        </g>
      </g>
    </g>
  </g>
</svg>
