<svg width="366px" height="212px" viewBox="538 219 366 212" version="1.1" xmlns="http://www.w3.org/2000/svg" xmlns:xlink="http://www.w3.org/1999/xlink">
    <!-- Generator: Sketch 42 (36781) - http://www.bohemiancoding.com/sketch -->
    <desc>Created with Sketch.</desc>
    <defs></defs>
    <g id="Bollarna" stroke="none" stroke-width="1" fill="none" fill-rule="evenodd" transform="translate(538.000000, 219.000000)">
        <g id="neodev-symbol-copy-2" transform="translate(145.197802, 109.052159)" fill="#0067A5">
            <path d="M17.9117162,74.5419804 C14.0985273,66.5319947 16.9615075,55.9884583 25.9722532,44.8549995 C34.542839,34.2633062 47.7437509,24.2937581 63.2450008,16.6591132 C60.5630968,16.2218057 57.6341103,15.9916439 54.4647478,15.9916439 C40.7439037,15.9916439 24.4399887,20.1820055 8.55681984,27.7908015 C7.25045939,28.4168417 5.97057205,29.0634194 4.70409777,29.7181413 C1.69216213,36.2239309 0,43.4690712 0,51.1139849 C0,66.4976474 6.81700609,80.2744263 17.574625,89.6016459 C21.8579766,88.2323601 26.1879209,86.5890046 30.5090408,84.6910548 C24.463638,82.6383654 20.1329878,79.2089541 17.9117162,74.5419804" id="Fill-1"></path>
            <path d="M54.4647478,13.7987328 C58.9397648,13.7987328 62.987329,14.2353321 66.5548473,15.0805571 C71.0605731,13.0030811 75.593478,11.1897599 80.0879087,9.67140005 C71.796526,3.7452641 61.660849,0.24751249 50.7048581,0.24751249 C31.635384,0.24751249 15.0324991,10.8137109 6.37472842,26.4229321 C6.78841512,26.2200356 7.19716016,26.0114735 7.61402363,25.812118 C23.786279,18.0648708 40.4251673,13.7987328 54.4647478,13.7987328" id="Fill-2"></path>
            <path d="M74.3404168,55.8588595 C65.768772,66.4501987 52.5678601,76.420455 37.0659043,84.0547459 C39.7478083,84.4920533 42.6775008,84.7218611 45.8465103,84.7222152 C59.5652365,84.7229234 75.8705634,80.5318535 91.7551442,72.9227034 C93.8412264,71.923447 95.8757743,70.8838237 97.8584348,69.8109155 C100.141477,64.0218144 101.410069,57.7178589 101.410069,51.1139849 C101.410069,34.973267 93.9075857,20.5987755 82.2205836,11.2804083 C78.1048951,12.6160551 73.9496735,14.2006308 69.8022173,16.0228043 C75.848679,18.0744314 80.1786232,21.5045508 82.4006008,26.1715245 C86.2141427,34.1822185 83.3508095,44.7246925 74.3404168,55.8588595 Z" id="Fill-3"></path>
            <path d="M33.7564107,85.6322396 C29.0336053,87.8102787 24.2843267,89.6901697 19.5788171,91.2524374 C28.1712874,97.9689137 38.9677336,101.979395 50.7048581,101.979395 C70.892557,101.979395 88.3214034,90.1427033 96.4790085,73.0119354 C95.2326538,73.6553262 93.9757099,74.2895106 92.6975874,74.901387 C76.5249791,82.64828 59.8871497,86.9158344 45.8489811,86.9158344 C41.3711403,86.9151263 37.323929,86.4781729 33.7564107,85.6322396 Z" id="Fill-5"></path>
            <path d="M19.8841404,73.5969005 C22.1145894,78.2819331 26.8342181,81.5813914 33.5428609,83.3146871 C33.936781,83.1302035 34.331054,82.9538641 34.7249741,82.7654855 C67.1400799,67.2373522 87.6422795,42.2736461 80.4278236,27.1173126 C78.1973746,22.431926 73.4777459,19.1317594 66.7687502,17.3984638 C66.3748301,17.5822392 65.980204,17.7589326 65.5869899,17.9476653 C33.1722371,33.4761528 12.6707434,58.4405671 19.8841404,73.5969005" id="Fill-7"></path>
        </g>
        <ellipse id="Oval" fill="#FF7FA4" cx="54.5494505" cy="54.5260797" rx="54.5494505" ry="54.5260797"></ellipse>
        <ellipse id="Oval-Copy" fill="#74F0C1" cx="329.302198" cy="90.2085878" rx="35.6978022" ry="35.6825081"></ellipse>
    </g>
</svg>
